<svg xmlns="http://www.w3.org/2000/svg" width="296" height="191.797" viewBox="0 0 296 191.797">
  <path id="blob" d="M170.03-50.2C185.1-43.548,180.6-14.747,189.379,9.965c9,24.541,31.273,44.992,36.9,70.556,5.85,25.393-4.95,56.07-31.273,59.138-26.323,2.9-67.946-21.644-109.568-21.985C43.813,117.5,2.64,141.7-21.883,138.125c-24.748-3.409-32.623-34.255-39.148-62.546s-11.924-53.854-.45-73.453,40.048-33.4,67.271-37.153S59.112-32.3,89.485-36.9C120.083-41.5,154.956-57.012,170.03-50.2Z" transform="translate(68.176 51.901)" fill="#4cbfbf"/>
</svg>
