<svg id="chica_redes_sociales" data-name="chica redes sociales" xmlns="http://www.w3.org/2000/svg" width="146" height="126.802" viewBox="0 0 146 126.802">
  <path id="Trazado_298" data-name="Trazado 298" d="M374.682,186.9c0,28.211-24.821,51.991-58.69,59.292a103.035,103.035,0,0,1-16.708,2.183c-.273.014-.547.027-.822.037q-2.194.091-4.421.092-3.872,0-7.652-.275-2.1-.149-4.159-.381a95.043,95.043,0,0,1-36.064-11.372q-1.948-1.1-3.8-2.284a75.787,75.787,0,0,1-6.553-4.678c-13.881-11.063-2.308-34.678,4.926-49.545C260.261,139.844,249.5,125.3,294.04,125.3S374.682,152.877,374.682,186.9Z" transform="translate(-228.682 -125.297)" fill="#f2f2f2"/>
  <path id="Trazado_299" data-name="Trazado 299" d="M767.591,168.545c-13.842-.248-13.84-20.819,0-21.066C781.433,147.727,781.431,168.3,767.591,168.545Z" transform="translate(-653.508 -143.148)" fill="#fff"/>
  <path id="Trazado_300" data-name="Trazado 300" d="M633.524,325.544c-13.842-.248-13.84-20.819,0-21.065C647.366,304.727,647.364,325.3,633.524,325.544Z" transform="translate(-545.619 -269.492)" fill="#fff"/>
  <path id="Trazado_301" data-name="Trazado 301" d="M773.372,484.969c-13.842-.248-13.84-20.819,0-21.066C787.214,464.151,787.212,484.722,773.372,484.969Z" transform="translate(-658.16 -397.788)" fill="#fff"/>
  <path id="Trazado_302" data-name="Trazado 302" d="M767.591,168.545c-13.842-.248-13.84-20.819,0-21.066C781.433,147.727,781.431,168.3,767.591,168.545Zm0-20.427c-13,.233-13,19.557,0,19.789,13-.233,13-19.558,0-19.789Z" transform="translate(-653.508 -143.148)" fill="#e6e6e6"/>
  <path id="Trazado_303" data-name="Trazado 303" d="M351.663,648.987a1.628,1.628,0,0,1-.064-.3l-4.02-22.923a1.646,1.646,0,0,0-.027-.176,2.071,2.071,0,0,0-1.732-1.636l-22.925.1a2.056,2.056,0,0,0-2.156,1.138q-.559,1.166-1.1,2.365-2.17,4.83-3.995,10.212a95.04,95.04,0,0,0,36.064,11.372Z" transform="translate(-298.164 -526.582)" fill="#2f2e41"/>
  <path id="Trazado_304" data-name="Trazado 304" d="M492.093,422.691a4.826,4.826,0,0,0-.11.753l-19.732,11.383-4.8-2.761-5.113,6.694,8.015,5.713a3.675,3.675,0,0,0,4.409-.107l20.347-16.052a4.822,4.822,0,1,0-3.021-5.623Z" transform="translate(-416.216 -361.628)" fill="#ffb8b8"/>
  <path id="Trazado_305" data-name="Trazado 305" d="M432.033,462.791a2.071,2.071,0,0,0-1.017-1.39l-9.054-5.063a5.74,5.74,0,0,0-7.039,9.07l7.219,7.5a2.068,2.068,0,0,0,3.126-.17l1.406-1.824.48-.621,4.491-5.821a2.023,2.023,0,0,0,.353-.715A2.055,2.055,0,0,0,432.033,462.791Z" transform="translate(-376.267 -390.729)" fill="#7713bf"/>
  <circle id="Elipse_47" data-name="Elipse 47" cx="11.282" cy="11.282" r="11.282" transform="translate(18.725 48.646) rotate(-45)" fill="#ffb8b8"/>
  <path id="Trazado_306" data-name="Trazado 306" d="M339.031,478.869a15,15,0,0,0,2.243-10.61,11.839,11.839,0,0,0-.3-1.177,13.153,13.153,0,0,0-2.415-4.415c.014-.359.01-.713-.012-1.064v0a10.151,10.151,0,0,0-9.372-9.462l-12.618-.959a10.056,10.056,0,0,0-8.607,3.663,10.766,10.766,0,0,0-.666.9h0a10.039,10.039,0,0,0-1.3,8.246l.107.473,1.345,5.9,2.249,9.87,1.882,8.259.2.871a2.072,2.072,0,0,0,2.015,1.607,1.966,1.966,0,0,0,.336-.027l24.415-4a2.043,2.043,0,0,0,.943-.414,2.129,2.129,0,0,0,.428-.459,2.043,2.043,0,0,0,.316-1.6Z" transform="translate(-290.087 -387.522)" fill="#7713bf"/>
  <path id="Trazado_307" data-name="Trazado 307" d="M227,557.481a4.934,4.934,0,0,1,1.961-7.308l13.9-42.739,8.056,3.823-15.21,41.615a4.961,4.961,0,0,1-8.708,4.61Z" transform="translate(-226.105 -432.819)" fill="#ffb8b8"/>
  <path id="Trazado_308" data-name="Trazado 308" d="M300.729,454.647a6.152,6.152,0,0,0-7.521,3.7h0c-.051.131-.1.267-.139.4l-1.177,2.5-3.557,7.547a2.21,2.21,0,0,0,1.361,3.062l.693.209,2.972.9,5.274,1.593,1.757.531a2.213,2.213,0,0,0,2.829-1.8l1.625-11.02A6.143,6.143,0,0,0,300.729,454.647Z" transform="translate(-276.011 -390.128)" fill="#7713bf"/>
  <path id="Trazado_309" data-name="Trazado 309" d="M343.032,299.622a13.983,13.983,0,0,1-14.987,1.983c2.154,2.556,6.246,15.173,6.246,15.173s-11.553-1.214-13.186-1.563c-9.641-2.062-6.137-27.03,4.136-26.9,1.74.021,3.261.232,4.419,1.53a5.436,5.436,0,0,1,5.495-3.26,8.665,8.665,0,0,1,5.813,3.289,12.588,12.588,0,0,1,2.662,10.318Z" transform="translate(-297.994 -255.079)" fill="#2f2e41"/>
  <path id="Trazado_310" data-name="Trazado 310" d="M633.524,325.544c-13.842-.248-13.84-20.819,0-21.065C647.366,304.727,647.364,325.3,633.524,325.544Zm0-20.427c-13,.233-13,19.557,0,19.789,13-.233,13-19.557,0-19.789Z" transform="translate(-545.619 -269.492)" fill="#e6e6e6"/>
  <path id="Trazado_311" data-name="Trazado 311" d="M773.372,484.969c-13.842-.248-13.84-20.819,0-21.066C787.214,464.151,787.212,484.722,773.372,484.969Zm0-20.427c-13,.233-13,19.557,0,19.789C786.375,484.1,786.373,464.773,773.372,464.542Z" transform="translate(-658.16 -397.788)" fill="#e6e6e6"/>
  <path id="Trazado_312" data-name="Trazado 312" d="M790.193,173.591c-2.6.075-7.646-.854-7.649,3.15.074,2.6-.854,7.646,3.15,7.649,2.6-.074,7.646.854,7.649-3.15C793.268,178.643,794.2,173.594,790.193,173.591Z" transform="translate(-673.861 -164.126)" fill="#3f3d56"/>
  <path id="Trazado_313" data-name="Trazado 313" d="M822.659,184.349a.674.674,0,0,1,0-1.347A.674.674,0,0,1,822.659,184.349Z" transform="translate(-705.651 -171.735)" fill="#fff"/>
  <path id="Trazado_314" data-name="Trazado 314" d="M799.549,188.494c2.335-.034,2.335,3.634,0,3.6C797.214,192.128,797.214,188.46,799.549,188.494Zm0-.9c-3.5-.051-3.5,5.451,0,5.4C803.052,193.045,803.052,187.543,799.549,187.594Z" transform="translate(-685.466 -175.43)" fill="#fff"/>
  <path id="Trazado_315" data-name="Trazado 315" d="M717.06,512.3a.319.319,0,0,1-.24-.538l1.063-1.123a.183.183,0,0,0-.007-.259l-1.129-1.068a.327.327,0,0,1-.013-.463h0a.328.328,0,0,1,.461-.014l1.519,1.419a.31.31,0,0,1,.012.44l-1.444,1.507A.318.318,0,0,1,717.06,512.3Z" transform="translate(-620.862 -433.879)" fill="#ccc"/>
  <path id="Trazado_316" data-name="Trazado 316" d="M696.889,517.176a.194.194,0,0,1-.127.051l-3.541.1a.2.2,0,0,1-.011-.39l3.541-.1a.2.2,0,0,1,.137.339Z" transform="translate(-601.852 -440.386)" fill="#ccc"/>
  <path id="Trazado_317" data-name="Trazado 317" d="M577.06,352.878a.318.318,0,0,1-.24-.538l1.063-1.123a.183.183,0,0,0-.007-.258l-1.129-1.068a.327.327,0,0,1-.013-.463h0a.328.328,0,0,1,.461-.014l1.519,1.419a.309.309,0,0,1,.012.44l-1.444,1.507A.318.318,0,0,1,577.06,352.878Z" transform="translate(-508.198 -305.583)" fill="#ccc"/>
  <path id="Trazado_318" data-name="Trazado 318" d="M556.889,357.751a.194.194,0,0,1-.127.051l-3.541.1a.2.2,0,1,1-.011-.39l3.541-.1a.2.2,0,0,1,.138.339Z" transform="translate(-489.188 -312.09)" fill="#ccc"/>
  <path id="Trazado_319" data-name="Trazado 319" d="M711.06,195.878a.319.319,0,0,1-.24-.538l1.063-1.123a.183.183,0,0,0-.007-.259l-1.129-1.068a.327.327,0,0,1-.013-.463h0a.328.328,0,0,1,.461-.014l1.519,1.419a.309.309,0,0,1,.012.44l-1.444,1.507A.318.318,0,0,1,711.06,195.878Z" transform="translate(-616.034 -179.238)" fill="#ccc"/>
  <path id="Trazado_320" data-name="Trazado 320" d="M690.889,200.751a.194.194,0,0,1-.127.051l-3.541.1a.2.2,0,0,1-.011-.39l3.541-.1a.2.2,0,0,1,.138.339Z" transform="translate(-597.023 -185.745)" fill="#ccc"/>
  <path id="Trazado_321" data-name="Trazado 321" d="M555,657.886a13.6,13.6,0,0,1-4.091,4.741,103.019,103.019,0,0,1-16.708,2.183c-.273.014-.547.027-.822.037q-2.194.091-4.421.092-3.872,0-7.652-.275a6.211,6.211,0,0,1-.039-1.754,5.726,5.726,0,0,1,4.259-4.864,4.821,4.821,0,0,1,5.491,3.052c.377-4.233.808-8.642,3.06-12.247a12.966,12.966,0,0,1,9.39-6.016,11.819,11.819,0,0,1,6.535,1.2q.278.141.551.293a10.9,10.9,0,0,1,3.15,2.689A10.556,10.556,0,0,1,555,657.886Z" transform="translate(-463.597 -541.731)" fill="#fff"/>
  <path id="Trazado_322" data-name="Trazado 322" d="M600.65,649.387a.3.3,0,0,1-.121.267,61.872,61.872,0,0,0-16.23,20.217c-.273.014-.547.027-.822.037q.521-1.057,1.082-2.093a62.91,62.91,0,0,1,6.816-10.089,62.1,62.1,0,0,1,8.642-8.581.374.374,0,0,1,.082-.051.4.4,0,0,1,.55.293Z" transform="translate(-513.698 -546.793)" fill="#f2f2f2"/>
  <path id="Trazado_323" data-name="Trazado 323" d="M801.524,498.966a9.928,9.928,0,0,1-1.066,1.066c-.472,5.141-3.683,6.309-6.26,6.309-1.853,0-3.38-.6-3.329-.769,2.749.064,2.983-1.064,2.983-1.064a2.187,2.187,0,0,1-1.917-1.279.658.658,0,0,0,.851-.213,1.937,1.937,0,0,1-1.49-2.132,2.219,2.219,0,0,0,1.043.406c-.191-.234-1.8-2.167-.834-3.169a5.366,5.366,0,0,0,4.542,2.273,2.256,2.256,0,0,1,2.195-2.706c1.492,0,1.812.853,1.812.853l1.066-.64c-.021,0-.129,1.066-.662,1.279Z" transform="translate(-680.594 -424.975)" fill="#3f3d56"/>
  <path id="Trazado_324" data-name="Trazado 324" d="M658.193,334.487a5.853,5.853,0,0,1-4.937,5.782V336.18h1.363l.26-1.693h-1.623c-.055-1.41-.109-2.2,1.691-2.011v-1.439c-2.7-.594-3.821.773-3.519,3.45h-1.486v1.693h1.486v4.087c-6.994-1.076-6.172-11.657.912-11.629a5.851,5.851,0,0,1,5.852,5.851Z" transform="translate(-564.484 -288.933)" fill="#3f3d56" fill-rule="evenodd"/>
</svg>
