<svg id="Grupo_14" data-name="Grupo 14" xmlns="http://www.w3.org/2000/svg" width="296" height="124.878" viewBox="0 0 296 124.878">
  <path id="Trazado_198" data-name="Trazado 198" d="M381.048,240.853c4.3-1.82,9.687-1.62,13.2,1.449A21.507,21.507,0,0,0,381.47,249.7c-1.25,1.507-2.483,3.313-4.4,3.687a4.808,4.808,0,0,1-3.466-.832,14.277,14.277,0,0,1-2.671-2.479l-.285-.106C373.392,246.192,376.75,242.673,381.048,240.853Z" transform="translate(-290.738 -239.691)" fill="#f0f0f0"/>
  <path id="Trazado_199" data-name="Trazado 199" d="M394.433,247.378a18.383,18.383,0,0,0-11.244,1.224,7.915,7.915,0,0,0-2.1,1.319,4.54,4.54,0,0,0-1.258,2.032,9.4,9.4,0,0,1-.781,2.136,2.78,2.78,0,0,1-1.9,1.254,7.223,7.223,0,0,1-2.868-.19,7.093,7.093,0,0,0-3.188-.21c-.129.032-.17-.17-.042-.2,1.847-.456,3.634.56,5.482.468a2.815,2.815,0,0,0,2.234-1.072,7.291,7.291,0,0,0,.834-2.154,4.844,4.844,0,0,1,1.156-2.033,7.318,7.318,0,0,1,2.042-1.395,17.834,17.834,0,0,1,5.344-1.586,18.71,18.71,0,0,1,6.351.213C394.628,247.21,394.561,247.4,394.433,247.378Z" transform="translate(-290.972 -244.685)" fill="#fff"/>
  <path id="Trazado_200" data-name="Trazado 200" d="M415.564,243.189a2.758,2.758,0,0,1,1.45-3.264c.119-.057.214.126.094.183a2.554,2.554,0,0,0-1.343,3.039c.038.127-.164.168-.2.042Z" transform="translate(-322.243 -239.848)" fill="#fff"/>
  <path id="Trazado_201" data-name="Trazado 201" d="M400.644,262.852a5.316,5.316,0,0,0,3.839.522c.129-.031.171.17.042.2a5.53,5.53,0,0,1-3.993-.552C400.416,262.959,400.529,262.788,400.644,262.852Z" transform="translate(-311.718 -255.966)" fill="#fff"/>
  <path id="Trazado_202" data-name="Trazado 202" d="M435.2,247.1a1.561,1.561,0,0,0,.806,1.243c.116.063,0,.235-.113.172a1.749,1.749,0,0,1-.894-1.373.106.106,0,0,1,.08-.122A.1.1,0,0,1,435.2,247.1Z" transform="translate(-335.985 -244.839)" fill="#fff"/>
  <path id="Trazado_203" data-name="Trazado 203" d="M393.177,278.848c-.074-.037-.148-.075-.223-.112a20.557,20.557,0,0,0-3.093-1.248c-.082-.027-.165-.053-.247-.078a21.675,21.675,0,0,0-7.935-.849,21.052,21.052,0,0,0-3.16.5,13.7,13.7,0,0,1-4.385.669,3.618,3.618,0,0,1-.441-.07l-3.81-6.588c0-.019,0-.038-.005-.057l-.164-.256.16-.049.092-.027.06-.018.019-.005.053-.016q.461-.134.925-.262h0a30.948,30.948,0,0,1,7.223-1.169c.073,0,.148-.005.222,0a20.083,20.083,0,0,1,3.272.192,17.727,17.727,0,0,1,1.763.346,14.765,14.765,0,0,1,4.246,1.813,11.725,11.725,0,0,1,5.373,7.067C393.144,278.7,393.161,278.771,393.177,278.848Z" transform="translate(-290.083 -260.438)" fill="#f0f0f0"/>
  <path id="Trazado_204" data-name="Trazado 204" d="M393.386,282.384a18.383,18.383,0,0,0-9.714-5.793,7.916,7.916,0,0,0-2.471-.212,4.54,4.54,0,0,0-2.227.865,9.4,9.4,0,0,1-1.91,1.236,2.78,2.78,0,0,1-2.269-.141,7.222,7.222,0,0,1-2.175-1.879,7.092,7.092,0,0,0-2.419-2.087c-.122-.052-.034-.238.088-.186,1.75.748,2.564,2.635,4.1,3.674a2.816,2.816,0,0,0,2.429.489,7.291,7.291,0,0,0,1.963-1.218,4.845,4.845,0,0,1,2.146-.927,7.317,7.317,0,0,1,2.47.116,17.832,17.832,0,0,1,5.222,1.951,18.708,18.708,0,0,1,4.943,3.994c.087.1-.083.215-.17.116Z" transform="translate(-290.384 -263.939)" fill="#fff"/>
  <path id="Trazado_205" data-name="Trazado 205" d="M419.837,278.766a2.758,2.758,0,0,1,3.123-1.733c.13.026.095.229-.035.2a2.554,2.554,0,0,0-2.9,1.618c-.046.124-.232.036-.186-.088Z" transform="translate(-325.321 -265.909)" fill="#fff"/>
  <path id="Trazado_206" data-name="Trazado 206" d="M400.362,283.469a5.316,5.316,0,0,0,2.751,2.728c.122.053.034.239-.088.186a5.529,5.529,0,0,1-2.856-2.845c-.053-.121.141-.19.194-.07Z" transform="translate(-311.49 -270.428)" fill="#fff"/>
  <path id="Trazado_207" data-name="Trazado 207" d="M436.839,291.685a1.561,1.561,0,0,0-.105,1.478c.055.121-.139.189-.194.07a1.749,1.749,0,0,1,.113-1.635.106.106,0,0,1,.137-.049A.1.1,0,0,1,436.839,291.685Z" transform="translate(-336.963 -276.146)" fill="#fff"/>
  <path id="Trazado_208" data-name="Trazado 208" d="M839.662,378.283h-3.373l-1.6-13.011h4.978Z" transform="translate(-586.874 -256.826)" fill="#a0616a"/>
  <path id="Trazado_209" data-name="Trazado 209" d="M930.09,649.448H919.213v-.138a4.234,4.234,0,0,1,4.233-4.233h6.644Z" transform="translate(-676.442 -524.721)" fill="#2f2e41"/>
  <path id="Trazado_210" data-name="Trazado 210" d="M923.654,373.712l-3.335.5-3.532-12.625,4.372-.744Z" transform="translate(-644.602 -253.715)" fill="#a0616a"/>
  <path id="Trazado_211" data-name="Trazado 211" d="M1020.3,644.089l-10.754,1.626-.021-.136a4.234,4.234,0,0,1,3.553-4.819h0l6.568-.993Z" transform="translate(-739.906 -520.988)" fill="#2f2e41"/>
  <path id="Trazado_212" data-name="Trazado 212" d="M478.641,421.1H377.849V320.309H478.641Z" transform="translate(-295.804 -296.374)" fill="#fff"/>
  <path id="Trazado_213" data-name="Trazado 213" d="M478.641,421.1H377.849V320.309H478.641Zm-99.3-1.489h97.813V321.8H379.338Z" transform="translate(-295.804 -296.374)" fill="#f0f0f0"/>
  <rect id="Rectángulo_23" data-name="Rectángulo 23" width="64.641" height="2.282" transform="translate(102.827 67.264)" fill="#4cbfbf"/>
  <rect id="Rectángulo_24" data-name="Rectángulo 24" width="64.641" height="2.282" transform="translate(102.827 73.197)" fill="#4cbfbf"/>
  <rect id="Rectángulo_25" data-name="Rectángulo 25" width="64.641" height="2.282" transform="translate(102.827 79.13)" fill="#4cbfbf"/>
  <circle id="Elipse_36" data-name="Elipse 36" cx="1.489" cy="1.489" r="1.489" transform="translate(97.414 67.25)" fill="#4cbfbf"/>
  <rect id="Rectángulo_26" data-name="Rectángulo 26" width="64.641" height="2.282" transform="translate(102.827 41.699)" fill="#f0f0f0"/>
  <rect id="Rectángulo_27" data-name="Rectángulo 27" width="64.641" height="2.282" transform="translate(102.827 47.632)" fill="#f0f0f0"/>
  <rect id="Rectángulo_28" data-name="Rectángulo 28" width="64.641" height="2.282" transform="translate(102.827 53.565)" fill="#f0f0f0"/>
  <circle id="Elipse_37" data-name="Elipse 37" cx="1.489" cy="1.489" r="1.489" transform="translate(97.414 41.437)" fill="#f0f0f0"/>
  <rect id="Rectángulo_29" data-name="Rectángulo 29" width="64.641" height="2.282" transform="translate(102.827 93.077)" fill="#f0f0f0"/>
  <rect id="Rectángulo_30" data-name="Rectángulo 30" width="64.641" height="2.282" transform="translate(102.827 99.009)" fill="#f0f0f0"/>
  <rect id="Rectángulo_31" data-name="Rectángulo 31" width="64.641" height="2.282" transform="translate(102.827 104.942)" fill="#f0f0f0"/>
  <circle id="Elipse_38" data-name="Elipse 38" cx="1.489" cy="1.489" r="1.489" transform="translate(97.414 92.815)" fill="#e5e5e5"/>
  <path id="Path_138" data-name="Path 138" d="M756.92,406.939H698.274c-.879,0-1.591-1.459-1.592-3.257V360.053c0-1.8.713-3.254,1.592-3.257H756.92c.879,0,1.591,1.459,1.592,3.257v43.629C758.511,405.48,757.8,406.937,756.92,406.939Z" transform="translate(-519.978 -322.028)" fill="#fff"/>
  <path id="Path_138-2" data-name="Path 138" d="M756.92,406.939H698.274c-.879,0-1.591-1.459-1.592-3.257V360.053c0-1.8.713-3.254,1.592-3.257H756.92c.879,0,1.591,1.459,1.592,3.257v43.629C758.511,405.48,757.8,406.937,756.92,406.939ZM698.274,358.1c-.527,0-.955.876-.955,1.954v43.629c0,1.079.428,1.953.955,1.954H756.92c.527,0,.955-.875.955-1.954V360.053c0-1.079-.428-1.953-.955-1.954Z" transform="translate(-519.978 -322.028)" fill="#e6e6e6"/>
  <rect id="Rectángulo_32" data-name="Rectángulo 32" width="15.786" height="1.187" transform="translate(199.773 70.342)" fill="#4cbfbf"/>
  <rect id="Rectángulo_33" data-name="Rectángulo 33" width="19.867" height="1.187" transform="translate(197.661 73.425)" fill="#4cbfbf"/>
  <path id="Trazado_214" data-name="Trazado 214" d="M786.7,401.792a10.311,10.311,0,0,1-15.195,9.078l0,0a10.308,10.308,0,1,1,15.2-9.076Z" transform="translate(-568.776 -346.418)" fill="#cacaca"/>
  <circle id="Elipse_39" data-name="Elipse 39" cx="2.802" cy="2.802" r="2.802" transform="translate(204.869 49.27)" fill="#fff"/>
  <path id="Trazado_215" data-name="Trazado 215" d="M794.193,434.17a14.442,14.442,0,0,1-9.672-.037h0l2.088-4.121h5.6Z" transform="translate(-581.737 -373.507)" fill="#fff"/>
  <path id="Trazado_216" data-name="Trazado 216" d="M560.144,292.853h44V273.559h-.677v18.617H560.144Z" transform="translate(-393.842 -192.342)" fill="#3f3d56"/>
  <circle id="Elipse_40" data-name="Elipse 40" cx="3.723" cy="3.723" r="3.723" transform="translate(206.244 80.62)" fill="#3f3d56"/>
  <path id="Path_138-3" data-name="Path 138" d="M244.92,316.939H186.274c-.879,0-1.591-1.459-1.592-3.257V270.053c0-1.8.713-3.254,1.592-3.257H244.92c.879,0,1.591,1.459,1.592,3.257v43.629C246.511,315.48,245.8,316.937,244.92,316.939Z" transform="translate(-159.986 -258.749)" fill="#fff"/>
  <path id="Path_138-4" data-name="Path 138" d="M244.92,316.939H186.274c-.879,0-1.591-1.459-1.592-3.257V270.053c0-1.8.713-3.254,1.592-3.257H244.92c.879,0,1.591,1.459,1.592,3.257v43.629C246.511,315.48,245.8,316.937,244.92,316.939ZM186.274,268.1c-.527,0-.954.876-.955,1.954v43.629c0,1.079.428,1.953.955,1.954H244.92c.527,0,.955-.875.955-1.954V270.053c0-1.079-.428-1.953-.955-1.954Z" transform="translate(-159.986 -258.749)" fill="#e6e6e6"/>
  <path id="Trazado_217" data-name="Trazado 217" d="M308.969,301.912a14.532,14.532,0,0,0-10.005-4.557v14.563Z" transform="translate(-240.338 -280.235)" fill="#3f3d56"/>
  <path id="Trazado_218" data-name="Trazado 218" d="M308.969,318.813l-10.005,10.005h13.983A14.525,14.525,0,0,0,308.969,318.813Z" transform="translate(-240.338 -295.322)" fill="#e4e4e4"/>
  <path id="Trazado_219" data-name="Trazado 219" d="M312.96,356.038a14.62,14.62,0,0,1-.251,2.705c-.013.071-.027.141-.041.211a14.457,14.457,0,0,1-1.687,4.42c-.043.074-.087.147-.131.219h0a14.622,14.622,0,0,1-2.927,3.462c-.057.05-.114.1-.172.147a14.512,14.512,0,0,1-8.79,3.4V356.038Z" transform="translate(-240.337 -321.496)" fill="#f0f0f0"/>
  <path id="Trazado_220" data-name="Trazado 220" d="M270.484,370.612c.194,0,.386-.005.578-.012V356.037l-10.591,10.591A14.525,14.525,0,0,0,270.484,370.612Z" transform="translate(-213.274 -321.495)" fill="#cacaca"/>
  <path id="Trazado_221" data-name="Trazado 221" d="M259.746,303.419a14.576,14.576,0,0,0-14.576,14.576h15.168V303.432C260.142,303.424,259.945,303.419,259.746,303.419Z" transform="translate(-202.516 -284.499)" fill="#4cbfbf"/>
  <path id="Trazado_222" data-name="Trazado 222" d="M246.664,356.038,243.6,359.1l-.1.1,0,0-2.672,2.672-.1.1-2.887,2.887-.1.1h0l-1.662,1.661a14.534,14.534,0,0,1-4.562-10.59Z" transform="translate(-192.912 -321.496)" fill="#4cbfbf"/>
  <path id="Trazado_223" data-name="Trazado 223" d="M242.7,204.853h-44V185.559h.677v18.617H242.7Z" transform="translate(-139.706 -130.468)" fill="#3f3d56"/>
  <circle id="Elipse_41" data-name="Elipse 41" cx="3.723" cy="3.723" r="3.723" transform="translate(55.607 54.494)" fill="#3f3d56"/>
  <path id="Trazado_224" data-name="Trazado 224" d="M995.921,431.608l-3.745.981.249,6.072.031,11.056a2.216,2.216,0,1,0,2.932.368l1.151-11.1Z" transform="translate(-727.267 -374.63)" fill="#a0616a"/>
  <path id="Trazado_225" data-name="Trazado 225" d="M995.015,411.758l-5.474-1.844-.013-.082a70.62,70.62,0,0,1-.8-8.794,2.725,2.725,0,0,1,.909-2.108,2.858,2.858,0,0,1,3.094-.5,3.057,3.057,0,0,1,1.89,2.719Z" transform="translate(-725.316 -351.129)" fill="#e4e4e4"/>
  <path id="Trazado_226" data-name="Trazado 226" d="M946.289,437.059l-8.373-2.167-3.871,13.035-.138,48.562,6.4-.04,2.677-39.305,17.059,36.318,6.879-.825-15-38.932s.825-6.879-1.788-10.318l.55-3.577Z" transform="translate(-686.774 -376.938)" fill="#2f2e41"/>
  <path id="Trazado_227" data-name="Trazado 227" d="M959.3,402.508l-.634-.01L945.8,397.354l6.156-13.711,2.923.531-.532-2.128,6.458-1.579,1.124,4.494,1.658,1.507a2.914,2.914,0,0,1,.8,3.077L960.569,401a1.288,1.288,0,0,1-1.269,1.5Z" transform="translate(-695.134 -338.673)" fill="#e4e4e4"/>
  <path id="Trazado_228" data-name="Trazado 228" d="M917.038,415.673l-3.385-1.879-4.016,4.561-7.618,8.012a2.216,2.216,0,1,0,1.865,2.293l8.5-7.225Z" transform="translate(-662.55 -362.105)" fill="#a0616a"/>
  <path id="Trazado_229" data-name="Trazado 229" d="M946.378,400.685l-2.683-5.115.048-.069a70.657,70.657,0,0,1,5.5-6.91,2.725,2.725,0,0,1,2.113-.9,2.86,2.86,0,0,1,2.58,1.778,3.057,3.057,0,0,1-.513,3.271Z" transform="translate(-693.655 -343.753)" fill="#e4e4e4"/>
  <circle id="Elipse_42" data-name="Elipse 42" cx="5.131" cy="5.131" r="5.131" transform="translate(255.76 30.697)" fill="#a0616a"/>
  <path id="Trazado_230" data-name="Trazado 230" d="M959.446,341.007a9.059,9.059,0,0,1,2.305-3.129,2.4,2.4,0,0,1,3.17-.288,5.879,5.879,0,1,1-3.487,4.7C960.586,342.175,960.295,341.126,959.446,341.007Z" transform="translate(-704.73 -308.187)" fill="#2f2e41"/>
  <path id="Trazado_231" data-name="Trazado 231" d="M188.113,434.878a1.928,1.928,0,0,0,.459-2.92l2.5-25.136-4.183.278-1.159,24.752a1.938,1.938,0,0,0,2.377,3.027Z" transform="translate(-160.326 -357.202)" fill="#ffb8b8"/>
  <path id="Trazado_232" data-name="Trazado 232" d="M185.279,391.513l1.1,8.334-.152,5.108,4.6.421.922-4.248.508-11.247a3.356,3.356,0,0,0-2.965-3.485h0a3.356,3.356,0,0,0-3.715,2.894Z" transform="translate(-160.406 -342.824)" fill="#2f2e41"/>
  <path id="Trazado_233" data-name="Trazado 233" d="M143.118,385.507h2.79l1.327-10.764h-4.118Z" transform="translate(-100.627 -263.486)" fill="#ffb7b7"/>
  <path id="Trazado_234" data-name="Trazado 234" d="M242.221,647.619h5.5a3.5,3.5,0,0,1,3.5,3.5v.114h-9Z" transform="translate(-200.442 -526.509)" fill="#2f2e41"/>
  <path id="Trazado_235" data-name="Trazado 235" d="M65.507,385.507H68.3l1.327-10.764H65.506Z" transform="translate(-46.058 -263.486)" fill="#ffb7b7"/>
  <path id="Trazado_236" data-name="Trazado 236" d="M164.61,647.619h5.5a3.5,3.5,0,0,1,3.5,3.5v.114h-9Z" transform="translate(-145.873 -526.509)" fill="#2f2e41"/>
  <circle id="Elipse_43" data-name="Elipse 43" cx="6.05" cy="6.05" r="6.05" transform="translate(24.25 27.509)" fill="#ffb8b8"/>
  <path id="Trazado_237" data-name="Trazado 237" d="M170.117,381.378l-4.2.48h0a11.173,11.173,0,0,0-1.429,10.089l3.168,9.165s-4.4,8.817-4.4,17-8.376,37.4-8.376,37.4l11.789,1.23,5.144-31.126,7.089,31L187,455.306l-4.457-40.646L179.6,401.282l-.125-6.524s1.252-4.9-1.882-8.03l-3.827-5.332Z" transform="translate(-139.035 -339.312)" fill="#2f2e41"/>
  <path id="Trazado_238" data-name="Trazado 238" d="M241.161,412.233a2.112,2.112,0,0,0-2.564-1.979l-22.832-15.645-1.936,4.165L237,412.923a2.123,2.123,0,0,0,4.16-.69Z" transform="translate(-180.48 -348.615)" fill="#ffb8b8"/>
  <path id="Trazado_239" data-name="Trazado 239" d="M198.661,392.8l8.585,3.336,4.828,2.836,2.827-4.2-3.6-3.123-10.539-6.412a3.678,3.678,0,0,0-4.911,1.013h0a3.678,3.678,0,0,0,.824,5.093Z" transform="translate(-167.365 -341.652)" fill="#2f2e41"/>
  <path id="Trazado_240" data-name="Trazado 240" d="M206.258,334.267h-8.891v-3.875c1.951-.775,3.861-1.435,5.015,0a3.875,3.875,0,0,1,3.875,3.875Z" transform="translate(-168.905 -302.868)" fill="#2f2e41"/>
  <path id="Trazado_241" data-name="Trazado 241" d="M186.6,331.092c-5.315.024-6.8,6.662-6.8,10.42,0,2.1.948,2.846,2.437,3.1l.526-2.806,1.232,2.926c.418,0,.858-.006,1.314-.014l.418-.86.932.845c3.731.005,9.153-.328,6.746-3.19C190.178,337.678,191.232,331.071,186.6,331.092Z" transform="translate(-156.551 -303.956)" fill="#2f2e41"/>
  <path id="Trazado_242" data-name="Trazado 242" d="M1006.82,353.621a6.235,6.235,0,0,1-.1-2.725,34.811,34.811,0,0,1,1.316-5.123,20.42,20.42,0,0,0,1.037-5.176,7.955,7.955,0,0,0-1.375-5.01,4.992,4.992,0,0,0-4.59-2.079,3.706,3.706,0,0,0-3.131,3.427,1.3,1.3,0,0,0,.636,1.6,8.466,8.466,0,0,0,1.908.572,4.785,4.785,0,0,1,2.867,2.538,6.185,6.185,0,0,1,.416,3.853,26.035,26.035,0,0,1-1.264,3.622,6.238,6.238,0,0,0-.375,3.76,3.959,3.959,0,0,0,4.437,2.7A2.923,2.923,0,0,1,1006.82,353.621Z" transform="translate(-733.152 -305.623)" fill="#2f2e41"/>
  <path id="Trazado_243" data-name="Trazado 243" d="M397.2,658.9H101.8a.3.3,0,0,1,0-.594H397.2a.3.3,0,0,1,0,.594Z" transform="translate(-101.5 -534.025)" fill="#cacaca"/>
  <path id="Trazado_244" data-name="Trazado 244" d="M849,586.344c-.576-4.632-3.447-9.2-7.865-10.7a21.507,21.507,0,0,1,0,14.766c-.679,1.836-1.625,3.808-.986,5.659a4.807,4.807,0,0,0,2.456,2.583,14.271,14.271,0,0,0,3.483,1.071l.234.194C848.209,595.645,849.574,590.977,849,586.344Z" transform="translate(-620.7 -475.9)" fill="#f0f0f0"/>
  <path id="Trazado_245" data-name="Trazado 245" d="M843.759,575.495a18.383,18.383,0,0,1,4.57,10.346,7.918,7.918,0,0,1-.09,2.479,4.541,4.541,0,0,1-1.129,2.106,9.4,9.4,0,0,0-1.459,1.745,2.78,2.78,0,0,0-.136,2.27,7.223,7.223,0,0,0,1.6,2.387,7.093,7.093,0,0,1,1.778,2.654c.037.127.232.063.2-.065-.53-1.827-2.3-2.865-3.15-4.511a2.816,2.816,0,0,1-.19-2.47,7.29,7.29,0,0,1,1.447-1.8,4.846,4.846,0,0,0,1.181-2.018,7.32,7.32,0,0,0,.185-2.466,17.831,17.831,0,0,0-1.3-5.42,18.708,18.708,0,0,0-3.364-5.391C843.807,575.242,843.672,575.4,843.759,575.495Z" transform="translate(-623.37 -475.667)" fill="#fff"/>
  <path id="Trazado_246" data-name="Trazado 246" d="M858.714,599.524a2.758,2.758,0,0,0,2.1-2.889c-.01-.132-.216-.122-.206.01a2.554,2.554,0,0,1-1.958,2.684C858.52,599.359,858.586,599.555,858.714,599.524Z" transform="translate(-633.809 -490.595)" fill="#fff"/>
  <path id="Trazado_247" data-name="Trazado 247" d="M850.011,617.97a5.317,5.317,0,0,1-2.374-3.062c-.037-.127-.233-.062-.2.065a5.53,5.53,0,0,0,2.477,3.181C850.033,618.222,850.125,618.038,850.011,617.97Z" transform="translate(-625.976 -503.462)" fill="#fff"/>
  <path id="Trazado_248" data-name="Trazado 248" d="M848.415,587.362a1.561,1.561,0,0,1-1.479-.075c-.113-.069-.205.115-.093.184a1.75,1.75,0,0,0,1.637.087.106.106,0,0,0,.065-.13.1.1,0,0,0-.13-.065Z" transform="translate(-625.522 -484.078)" fill="#fff"/>
  <path id="Trazado_249" data-name="Trazado 249" d="M798.616,602.342c.069.045.139.09.208.137a20.559,20.559,0,0,1,2.629,2.052c.064.057.129.116.191.175a21.675,21.675,0,0,1,4.707,6.444,21.062,21.062,0,0,1,1.153,2.983,13.705,13.705,0,0,0,1.617,4.131,3.606,3.606,0,0,0,.281.347h7.61l.052-.024.3.014c-.012-.054-.026-.109-.038-.163-.007-.031-.016-.063-.023-.094s-.01-.042-.014-.061l-.005-.019c0-.019-.009-.036-.012-.054q-.115-.466-.236-.932s0,0,0,0a30.949,30.949,0,0,0-2.6-6.838c-.035-.064-.069-.13-.108-.194a20.094,20.094,0,0,0-1.8-2.737,17.753,17.753,0,0,0-1.182-1.353,14.767,14.767,0,0,0-3.695-2.768,11.725,11.725,0,0,0-8.807-1.113C798.764,602.3,798.691,602.318,798.616,602.342Z" transform="translate(-591.649 -494.328)" fill="#f0f0f0"/>
  <path id="Trazado_250" data-name="Trazado 250" d="M798.462,603.343a18.383,18.383,0,0,1,9.878,5.509,7.915,7.915,0,0,1,1.421,2.033,4.54,4.54,0,0,1,.366,2.361,9.393,9.393,0,0,0-.114,2.272,2.78,2.78,0,0,0,1.258,1.894,7.224,7.224,0,0,0,2.715.943A7.091,7.091,0,0,1,817,619.4c.106.079.223-.09.117-.169-1.523-1.14-3.565-.9-5.231-1.706a2.815,2.815,0,0,1-1.639-1.858,7.293,7.293,0,0,1,.071-2.309,4.844,4.844,0,0,0-.272-2.322,7.316,7.316,0,0,0-1.337-2.08,17.834,17.834,0,0,0-4.3-3.543,18.707,18.707,0,0,0-5.932-2.279c-.13-.026-.144.18-.016.205Z" transform="translate(-591.478 -495.233)" fill="#fff"/>
  <path id="Trazado_251" data-name="Trazado 251" d="M828.686,610.614a2.758,2.758,0,0,0-.063-3.571c-.088-.1-.246.033-.158.132a2.554,2.554,0,0,1,.052,3.322C828.433,610.6,828.6,610.716,828.686,610.614Z" transform="translate(-612.618 -497.955)" fill="#fff"/>
  <path id="Trazado_252" data-name="Trazado 252" d="M829.02,633.469a5.315,5.315,0,0,1-3.739-1.015c-.106-.079-.223.09-.117.169a5.529,5.529,0,0,0,3.893,1.049C829.189,633.657,829.151,633.455,829.02,633.469Z" transform="translate(-610.286 -515.832)" fill="#fff"/>
  <path id="Trazado_253" data-name="Trazado 253" d="M809.316,607.947a1.561,1.561,0,0,1-1.227.831c-.132.013-.094.215.037.2a1.75,1.75,0,0,0,1.359-.916.106.106,0,0,0-.026-.143A.1.1,0,0,0,809.316,607.947Z" transform="translate(-598.252 -498.584)" fill="#fff"/>
  <path id="Trazado_254" data-name="Trazado 254" d="M293.278,586.344c.576-4.632,3.447-9.2,7.865-10.7a21.507,21.507,0,0,0,0,14.766c.679,1.836,1.625,3.808.987,5.659a4.808,4.808,0,0,1-2.456,2.583,14.273,14.273,0,0,1-3.483,1.071l-.234.194C294.067,595.645,292.7,590.977,293.278,586.344Z" transform="translate(-236.247 -475.9)" fill="#f0f0f0"/>
  <path id="Trazado_255" data-name="Trazado 255" d="M307.6,575.5a18.383,18.383,0,0,0-4.57,10.346,7.913,7.913,0,0,0,.09,2.479,4.54,4.54,0,0,0,1.129,2.106,9.4,9.4,0,0,1,1.459,1.745,2.78,2.78,0,0,1,.136,2.27,7.223,7.223,0,0,1-1.6,2.387,7.093,7.093,0,0,0-1.778,2.654c-.037.127-.232.063-.2-.064.53-1.827,2.3-2.865,3.15-4.511a2.815,2.815,0,0,0,.19-2.47,7.29,7.29,0,0,0-1.447-1.8,4.845,4.845,0,0,1-1.181-2.018,7.317,7.317,0,0,1-.185-2.466,17.833,17.833,0,0,1,1.3-5.42,18.71,18.71,0,0,1,3.364-5.391c.088-.1.224.056.136.154Z" transform="translate(-242.659 -475.668)" fill="#fff"/>
  <path id="Trazado_256" data-name="Trazado 256" d="M300.035,599.524a2.758,2.758,0,0,1-2.1-2.889.1.1,0,0,1,.206.01,2.554,2.554,0,0,0,1.958,2.684C300.228,599.359,300.163,599.555,300.035,599.524Z" transform="translate(-239.61 -490.595)" fill="#fff"/>
  <path id="Trazado_257" data-name="Trazado 257" d="M307.828,617.97a5.316,5.316,0,0,0,2.374-3.062c.037-.127.233-.062.2.065a5.529,5.529,0,0,1-2.477,3.181C307.807,618.222,307.715,618.038,307.828,617.97Z" transform="translate(-246.535 -503.462)" fill="#fff"/>
  <path id="Trazado_258" data-name="Trazado 258" d="M311.481,587.362a1.561,1.561,0,0,0,1.479-.075c.113-.069.2.115.093.184a1.749,1.749,0,0,1-1.637.087.106.106,0,0,1-.065-.13A.1.1,0,0,1,311.481,587.362Z" transform="translate(-249.045 -484.078)" fill="#fff"/>
  <path id="Trazado_259" data-name="Trazado 259" d="M321.03,602.342c-.069.045-.139.09-.208.137a20.554,20.554,0,0,0-2.629,2.052c-.064.057-.129.116-.191.175a21.674,21.674,0,0,0-4.707,6.444,21.055,21.055,0,0,0-1.153,2.983,13.7,13.7,0,0,1-1.617,4.131,3.611,3.611,0,0,1-.281.347h-7.61l-.052-.024-.3.014c.012-.054.026-.109.038-.163.007-.031.016-.063.023-.094s.01-.042.014-.061l.005-.019c0-.019.009-.036.012-.054q.115-.466.236-.932s0,0,0,0a30.951,30.951,0,0,1,2.6-6.838c.035-.064.069-.13.108-.194a20.088,20.088,0,0,1,1.8-2.737,17.766,17.766,0,0,1,1.183-1.353A14.767,14.767,0,0,1,312,603.386a11.725,11.725,0,0,1,8.807-1.113C320.882,602.3,320.955,602.318,321.03,602.342Z" transform="translate(-242.668 -494.328)" fill="#f0f0f0"/>
  <path id="Trazado_260" data-name="Trazado 260" d="M321.1,603.343a18.383,18.383,0,0,0-9.878,5.509,7.919,7.919,0,0,0-1.42,2.033,4.54,4.54,0,0,0-.366,2.361,9.4,9.4,0,0,1,.114,2.272,2.78,2.78,0,0,1-1.258,1.894,7.224,7.224,0,0,1-2.715.943,7.094,7.094,0,0,0-3.017,1.049c-.106.079-.223-.09-.117-.169,1.523-1.14,3.565-.9,5.231-1.706a2.815,2.815,0,0,0,1.639-1.858,7.29,7.29,0,0,0-.071-2.309,4.844,4.844,0,0,1,.272-2.322,7.318,7.318,0,0,1,1.337-2.081,17.838,17.838,0,0,1,4.3-3.543,18.709,18.709,0,0,1,5.932-2.279c.129-.026.144.18.016.205Z" transform="translate(-242.752 -495.232)" fill="#fff"/>
  <path id="Trazado_261" data-name="Trazado 261" d="M333.307,610.614a2.758,2.758,0,0,1,.063-3.571c.088-.1.246.033.158.132a2.554,2.554,0,0,0-.052,3.322C333.561,610.6,333.391,610.716,333.307,610.614Z" transform="translate(-264.047 -497.955)" fill="#fff"/>
  <path id="Trazado_262" data-name="Trazado 262" d="M325.524,633.469a5.315,5.315,0,0,0,3.739-1.015c.106-.079.223.09.117.169a5.53,5.53,0,0,1-3.893,1.049C325.356,633.657,325.393,633.455,325.524,633.469Z" transform="translate(-258.93 -515.832)" fill="#fff"/>
  <path id="Trazado_263" data-name="Trazado 263" d="M351.2,607.947a1.561,1.561,0,0,0,1.227.831c.132.013.094.215-.037.2a1.75,1.75,0,0,1-1.359-.916.106.106,0,0,1,.026-.143.1.1,0,0,1,.143.026Z" transform="translate(-276.936 -498.584)" fill="#fff"/>
</svg>
