<svg id="Grupo_12" data-name="Grupo 12" xmlns="http://www.w3.org/2000/svg" width="260" height="114.422" viewBox="0 0 260 114.422">
  <defs>
    <style>
      .cls-1 {
        fill: #f2f2f2;
      }

      .cls-2 {
        fill: #fff;
      }

      .cls-3 {
        fill: #4cbfbf;
      }

      .cls-4 {
        fill: #ccc;
      }

      .cls-5 {
        fill: #3f3d56;
      }

      .cls-6 {
        fill: #b3b3b3;
      }

      .cls-7 {
        fill: #ffb8b8;
      }

      .cls-8 {
        opacity: 0.2;
      }

      .cls-9 {
        fill: #2f2e41;
      }
    </style>
  </defs>
  <path id="Trazado_128" data-name="Trazado 128" class="cls-1" d="M268.078,437.656c-.894,7-4.181,13.411-7.687,19.583-.116.21-.235.417-.357.627H223.589c-.737-.191-1.465-.4-2.189-.627a39.84,39.84,0,0,1-11.507-5.661c-13.408-9.66-18.567-27.913-16.237-44.269,1.449-10.162,5.909-20.537,14.593-26.009A21.91,21.91,0,0,1,224,378.54c.138.025.276.056.417.085a16.256,16.256,0,0,1,10.889,7.656c4.14,7.355,1.675,16.466-.361,24.651s-3.13,17.984,2.76,24.021a15.026,15.026,0,0,1,17.472-19.53c.427.091.847.194,1.261.32a13.987,13.987,0,0,1,2.876,1.2C266.265,420.827,269.078,429.762,268.078,437.656Z" transform="translate(-190.727 -343.445)"/>
  <path id="Trazado_129" data-name="Trazado 129" class="cls-2" d="M290.862,458.161c1.01.235,2.023.442,3.042.627h-5.51c-.721-.194-1.44-.4-2.151-.627q-2.348-.734-4.623-1.684a41.474,41.474,0,0,1-15.929-11.485,32.419,32.419,0,0,1-5.024-8.208,37.276,37.276,0,0,1-2.572-10.5A74.7,74.7,0,0,1,259.574,404a92.977,92.977,0,0,1,7.264-21.788q.6-1.247,1.236-2.478a.483.483,0,0,1,.323-.276.557.557,0,0,1,.417.085.661.661,0,0,1,.26.872,91.907,91.907,0,0,0-7.709,21,80.834,80.834,0,0,0-2.293,21.86c.307,6.831,2.092,13.549,6.141,19.135a38.6,38.6,0,0,0,14.452,11.858,53.045,53.045,0,0,0,11.2,3.889Z" transform="translate(-235.12 -344.367)"/>
  <path id="Trazado_130" data-name="Trazado 130" class="cls-2" d="M379.9,539.528h-1.625c-.182-.207-.358-.417-.53-.627a34.628,34.628,0,0,1-7.289-15.575,33.788,33.788,0,0,1,2.914-21.029,34.574,34.574,0,0,1,3.149-5.213c.427.091.847.194,1.261.32a32.685,32.685,0,0,0,1.559,41.5C379.524,539.111,379.712,539.321,379.9,539.528Z" transform="translate(-312.068 -425.106)"/>
  <path id="Trazado_131" data-name="Trazado 131" class="cls-1" d="M868.316,581.011a14.369,14.369,0,0,0,2.029,5.168c.031.055.062.11.094.165h9.618c.194-.05.387-.106.578-.165a10.516,10.516,0,0,0,3.037-1.494c3.539-2.549,4.9-7.367,4.285-11.683-.382-2.682-1.56-5.42-3.851-6.864a5.783,5.783,0,0,0-4.158-.728l-.11.022a4.29,4.29,0,0,0-2.874,2.02c-1.093,1.941-.442,4.346.1,6.506s.826,4.746-.728,6.34a3.966,3.966,0,0,0-4.611-5.154c-.112.024-.223.051-.333.084a3.691,3.691,0,0,0-.759.318C868.794,576.57,868.052,578.928,868.316,581.011Z" transform="translate(-654.128 -471.923)"/>
  <path id="Trazado_132" data-name="Trazado 132" class="cls-2" d="M884.856,586.426c-.267.062-.534.117-.8.166h1.454c.19-.051.38-.106.568-.166q.62-.194,1.22-.444a10.946,10.946,0,0,0,4.2-3.031,8.555,8.555,0,0,0,1.326-2.166,9.838,9.838,0,0,0,.679-2.772,19.71,19.71,0,0,0-.391-5.879,24.531,24.531,0,0,0-1.917-5.75q-.158-.329-.326-.654a.127.127,0,0,0-.085-.073.147.147,0,0,0-.11.022.174.174,0,0,0-.069.23,24.25,24.25,0,0,1,2.035,5.542,21.334,21.334,0,0,1,.605,5.769,9.205,9.205,0,0,1-1.621,5.05,10.189,10.189,0,0,1-3.814,3.13A14.009,14.009,0,0,1,884.856,586.426Z" transform="translate(-664.965 -472.17)"/>
  <path id="Trazado_133" data-name="Trazado 133" class="cls-2" d="M876.437,607.9h.429c.048-.055.094-.11.14-.166a9.138,9.138,0,0,0,1.924-4.111,8.917,8.917,0,0,0-.769-5.55,9.13,9.13,0,0,0-.831-1.376c-.113.024-.224.051-.333.084a8.626,8.626,0,0,1-.411,10.952Q876.513,607.818,876.437,607.9Z" transform="translate(-659.738 -493.479)"/>
  <path id="Trazado_134" data-name="Trazado 134" class="cls-3" d="M525.429,453.548h-30.1l-.319-9.256a2.779,2.779,0,0,1,3.115-2.854l17.518,2.145h0a9.814,9.814,0,0,1,9.787,9.807Z" transform="translate(-397.935 -386.899)"/>
  <path id="Trazado_135" data-name="Trazado 135" class="cls-4" d="M498.631,375.414h-21a2.126,2.126,0,0,0-2.126,2.126v21a2.126,2.126,0,0,0,2.126,2.126h21a2.126,2.126,0,0,0,2.126-2.126v-21A2.126,2.126,0,0,0,498.631,375.414Z" transform="translate(-384.554 -341.596)"/>
  <path id="Trazado_136" data-name="Trazado 136" class="cls-5" d="M504.9,407.112l-9.913,1.93a2.261,2.261,0,0,1-2.649-1.786l-.762-3.913a2.262,2.262,0,0,1,1.786-2.649l9.913-1.93a2.262,2.262,0,0,1,2.649,1.786l.762,3.913A2.262,2.262,0,0,1,504.9,407.112Z" transform="translate(-395.556 -357.594)"/>
  <path id="Trazado_137" data-name="Trazado 137" class="cls-2" d="M509.89,408.427l-7.565,1.473a.532.532,0,1,1-.2-1.043l7.565-1.473a.532.532,0,0,1,.2,1.043Z" transform="translate(-402.524 -363.532)"/>
  <path id="Trazado_138" data-name="Trazado 138" class="cls-2" d="M513.194,415.383l-3.913.762a.532.532,0,0,1-.2-1.043l3.913-.762a.532.532,0,1,1,.2,1.043Z" transform="translate(-407.299 -368.306)"/>
  <path id="Trazado_139" data-name="Trazado 139" class="cls-6" d="M500.757,377.54v2.791H475.51V377.54a2.126,2.126,0,0,1,2.126-2.126h21A2.126,2.126,0,0,1,500.757,377.54Z" transform="translate(-384.554 -341.596)"/>
  <path id="Trazado_140" data-name="Trazado 140" class="cls-7" d="M640.335,366.829a3.369,3.369,0,0,0-4.765-2L606.686,354.47l-1.272,7.216,28.792,7.918a3.388,3.388,0,0,0,6.129-2.774Z" transform="translate(-473.716 -327.22)"/>
  <path id="Trazado_141" data-name="Trazado 141" class="cls-8" d="M640.335,366.829a3.369,3.369,0,0,0-4.765-2L606.686,354.47l-1.272,7.216,28.792,7.918a3.388,3.388,0,0,0,6.129-2.774Z" transform="translate(-473.716 -327.22)"/>
  <path id="Trazado_142" data-name="Trazado 142" class="cls-3" d="M594.755,350.041l-2.728,7.126a1.511,1.511,0,0,1-2.152.777l-6.629-3.731a4.2,4.2,0,0,1,3.023-7.828l7.4,1.642a1.511,1.511,0,0,1,1.083,2.015Z" transform="translate(-456.658 -321.476)"/>
  <path id="Trazado_143" data-name="Trazado 143" class="cls-3" d="M701.36,414.914l-10.35,4.7,1.359,5.116a79.577,79.577,0,0,1,2.051,30.312h0l7.567,1.58,6.273-16-2.2-18.191Z" transform="translate(-532.466 -368.707)"/>
  <path id="Trazado_144" data-name="Trazado 144" class="cls-5" d="M761.162,490.414c-6.8,0-12.342,4.943-12.611,11.134h25.222C773.5,495.357,767.962,490.414,761.162,490.414Z" transform="translate(-571.961 -420.528)"/>
  <path id="Trazado_145" data-name="Trazado 145" class="cls-5" d="M545.3,438.152c-.354-27.944-16.268-25.373-16.268-25.373s.3,8.7.441,8.969c10.141,19.188-6.6,41.683-27.9,37.544q-.6-.117-1.158-.237A10.846,10.846,0,0,1,491.9,446.9c2.1-16.853-8.34-16.555-8.34-16.555H468.3l-7.927-7.134a2.3,2.3,0,0,0-3.7.916l-1.02,2.768s-15.054,1.568-13.8,16.309H446.5a9.4,9.4,0,0,0,.05,1.255l34.735-.282a3.8,3.8,0,0,1,3.842,3.669,3.686,3.686,0,0,1-3.809,3.7l-5.6-.187c-1.725,7.684,2.509,12.859,7.174,16.113a26.078,26.078,0,0,0,14.934,4.587h15.213c19.759,0,23.209-16.622,23.209-16.622C546.6,451.041,545.3,438.152,545.3,438.152Z" transform="translate(-361.398 -367.199)"/>
  <circle id="Elipse_16" data-name="Elipse 16" class="cls-5" cx="17.642" cy="17.642" r="17.642" transform="translate(170.618 78.668)"/>
  <circle id="Elipse_17" data-name="Elipse 17" class="cls-2" cx="4.324" cy="4.324" r="4.324" transform="translate(183.936 91.985)"/>
  <circle id="Elipse_18" data-name="Elipse 18" class="cls-5" cx="20.308" cy="20.308" r="20.308" transform="translate(78.881 73.336)"/>
  <circle id="Elipse_19" data-name="Elipse 19" class="cls-2" cx="4.977" cy="4.977" r="4.977" transform="translate(94.212 88.666)"/>
  <path id="Trazado_146" data-name="Trazado 146" class="cls-5" d="M682.375,390.573l-3.724-10.115a4.277,4.277,0,0,1,2.536-5.492l10.676-3.93a7.526,7.526,0,1,1,5.2,14.125Z" transform="translate(-523.802 -338.271)"/>
  <path id="Trazado_147" data-name="Trazado 147" class="cls-3" d="M731.776,378.446a7.386,7.386,0,0,1-2.76,5.752,9.405,9.405,0,0,1-6.178-12.953,7.372,7.372,0,0,1,8.939,7.2Z" transform="translate(-553.744 -338.619)"/>
  <ellipse id="Elipse_20" data-name="Elipse 20" class="cls-3" cx="4.391" cy="5.332" rx="4.391" ry="5.332" transform="translate(78.724 67.377)"/>
  <path id="Trazado_148" data-name="Trazado 148" class="cls-7" d="M450.07,270.181h3.845l1.829-9.973h-5.675Z" transform="translate(-308.913 -178.599)"/>
  <path id="Trazado_149" data-name="Trazado 149" class="cls-9" d="M632.444,555.587h7.573a4.826,4.826,0,0,1,4.826,4.826v.157h-12.4Z" transform="translate(-492.269 -465.261)"/>
  <path id="Trazado_150" data-name="Trazado 150" class="cls-9" d="M592.946,467.077q-.067,0-.135-.006l-5.321-.387a1.411,1.411,0,0,1-1.195-1.891l7.121-16a1.1,1.1,0,0,0-.062-.878,1.082,1.082,0,0,0-.693-.552c-3.349-.875-11.941-3.206-19.378-5.933-3.186-1.168-5.193-2.857-5.965-5.019a7.083,7.083,0,0,1,.552-5.558l.05-.085,7,.636,7.587.645,16.627,8.916a6.3,6.3,0,0,1,2.766,8.087l-7.665,17.189A1.41,1.41,0,0,1,592.946,467.077Z" transform="translate(-447.327 -379.589)"/>
  <circle id="Elipse_21" data-name="Elipse 21" class="cls-7" cx="7.703" cy="7.703" r="7.703" transform="translate(121.107 4.754)"/>
  <path id="Trazado_151" data-name="Trazado 151" class="cls-7" d="M443.07,273.181h3.845l1.829-9.973h-5.675Z" transform="translate(-304.109 -180.658)"/>
  <path id="Trazado_152" data-name="Trazado 152" class="cls-9" d="M625.444,558.587h7.573a4.826,4.826,0,0,1,4.826,4.826v.157h-12.4Z" transform="translate(-487.464 -467.32)"/>
  <path id="Trazado_153" data-name="Trazado 153" class="cls-9" d="M585.946,470.077q-.067,0-.135-.006l-5.321-.387a1.411,1.411,0,0,1-1.195-1.891l7.121-16a1.1,1.1,0,0,0-.062-.878,1.082,1.082,0,0,0-.693-.552c-3.349-.875-11.941-3.206-19.378-5.933-3.186-1.168-5.193-2.857-5.965-5.019a7.083,7.083,0,0,1,.552-5.558l.05-.085,7,.636,7.587.645,16.627,8.916a6.3,6.3,0,0,1,2.766,8.087l-7.665,17.189A1.41,1.41,0,0,1,585.946,470.077Z" transform="translate(-442.522 -381.648)"/>
  <path id="Trazado_154" data-name="Trazado 154" class="cls-3" d="M575.982,339.617l-8.154-2.823s-5.119,3.933-2.66,13.69a24.153,24.153,0,0,1-1.066,15.155,15.6,15.6,0,0,1-.821,1.735s9.1,10.977,17.563,2.823l-3.293-15.838S582.725,343.851,575.982,339.617Z" transform="translate(-444.797 -315.088)"/>
  <path id="Trazado_155" data-name="Trazado 155" class="cls-9" d="M572.3,288.008c-1.1-1.641-1.962-3.917-.754-5.478,1.192-1.541,3.542-1.314,5.366-2a6.076,6.076,0,0,0,3.556-6.61,7.843,7.843,0,0,0-5.164-5.8,11.18,11.18,0,0,0-7.945.432,12.133,12.133,0,0,0-6.836,6.924,9.328,9.328,0,0,0,1.784,9.355c2.466,2.6,6.337,3.288,9.918,3.246" transform="translate(-442.529 -267.585)"/>
  <path id="Trazado_156" data-name="Trazado 156" class="cls-9" d="M498.435,278.882c-1.382,1.125-3.489.625-4.972-.362s-2.686-2.393-4.291-3.166c-2.829-1.364-6.249-.457-9,1.054s-5.194,3.6-8.1,4.785-6.619,1.245-8.821-.995a8.07,8.07,0,0,0,11.827,9.525c3.186-1.941,4.946-6.01,8.52-7.082,1.978-.593,4.1-.115,6.1.4s4.083,1.076,6.1.636,3.9-2.253,3.647-4.3Z" transform="translate(-375.834 -272.458)"/>
  <path id="Trazado_157" data-name="Trazado 157" class="cls-7" d="M638.309,375.121a3.369,3.369,0,0,0-4.975-1.393l-29.942-6.72-.372,7.318,29.549,4.3a3.388,3.388,0,0,0,5.74-3.509Z" transform="translate(-472.072 -335.826)"/>
  <path id="Trazado_158" data-name="Trazado 158" class="cls-3" d="M590.12,363.225l-1.828,7.408a1.511,1.511,0,0,1-2.04,1.036l-7.039-2.885a4.2,4.2,0,1,1,2.034-8.141l7.548.716a1.511,1.511,0,0,1,1.324,1.866Z" transform="translate(-453.551 -331.371)"/>
  <circle id="Elipse_22" data-name="Elipse 22" class="cls-3" cx="2.195" cy="2.195" r="2.195" transform="translate(160.582 40.718)"/>
  <path id="Trazado_159" data-name="Trazado 159" class="cls-5" d="M445.5,630.728a.315.315,0,0,1-.314.314H185.814a.314.314,0,1,1,0-.627H445.186A.315.315,0,0,1,445.5,630.728Z" transform="translate(-185.5 -516.62)"/>
</svg>
