<svg id="instagram" xmlns="http://www.w3.org/2000/svg" width="42" height="42" viewBox="0 0 42 42">
  <circle id="Elipse_58" data-name="Elipse 58" cx="21" cy="21" r="21" fill="#deaf41"/>
  <path id="Icon_awesome-instagram" data-name="Icon awesome-instagram" d="M10.756,7.478a5.515,5.515,0,1,0,5.516,5.515A5.507,5.507,0,0,0,10.756,7.478Zm0,9.1a3.585,3.585,0,1,1,3.586-3.585A3.592,3.592,0,0,1,10.756,16.578Zm7.028-9.326A1.286,1.286,0,1,1,16.5,5.966,1.283,1.283,0,0,1,17.784,7.252Zm3.653,1.306A6.365,6.365,0,0,0,19.7,4.051a6.409,6.409,0,0,0-4.508-1.738c-1.776-.1-7.1-.1-8.876,0A6.4,6.4,0,0,0,1.808,4.046,6.386,6.386,0,0,0,.07,8.553c-.1,1.776-.1,7.1,0,8.875a6.365,6.365,0,0,0,1.738,4.507,6.417,6.417,0,0,0,4.508,1.738c1.776.1,7.1.1,8.876,0A6.367,6.367,0,0,0,19.7,21.935a6.407,6.407,0,0,0,1.738-4.507c.1-1.776.1-7.094,0-8.87ZM19.142,19.334A3.63,3.63,0,0,1,17.1,21.378c-1.416.562-4.776.432-6.341.432s-4.93.125-6.341-.432A3.63,3.63,0,0,1,2.37,19.334c-.562-1.416-.432-4.776-.432-6.341s-.125-4.929.432-6.341A3.63,3.63,0,0,1,4.415,4.608c1.416-.562,4.776-.432,6.341-.432s4.93-.125,6.341.432a3.63,3.63,0,0,1,2.045,2.045c.562,1.416.432,4.776.432,6.341S19.7,17.922,19.142,19.334Z" transform="translate(10.005 7.762)" fill="#fff" stroke="#fff" stroke-width="1"/>
</svg>
