<svg id="smart_phone" data-name="smart phone" xmlns="http://www.w3.org/2000/svg" width="224" height="187.281" viewBox="0 0 224 187.281">
  <ellipse id="Elipse_48" data-name="Elipse 48" cx="88.464" cy="4.524" rx="88.464" ry="4.524" transform="translate(16.749 178.234)" fill="#f2f2f2"/>
  <path id="Trazado_325" data-name="Trazado 325" d="M506.961,120.868h-1V93.337A15.934,15.934,0,0,0,490.022,77.4H431.694A15.934,15.934,0,0,0,415.76,93.337V244.373a15.934,15.934,0,0,0,15.934,15.934h58.328a15.934,15.934,0,0,0,15.934-15.934V140.465h1Z" transform="translate(-350.063 -77.403)" fill="#3f3d56"/>
  <path id="Trazado_326" data-name="Trazado 326" d="M515.664,105.8V256.611a11.9,11.9,0,0,1-11.9,11.9H445.156a11.9,11.9,0,0,1-11.9-11.9V105.8a11.9,11.9,0,0,1,11.9-11.9h7.11a5.656,5.656,0,0,0,5.235,7.788h33.415a5.656,5.656,0,0,0,5.235-7.788h7.612a11.9,11.9,0,0,1,11.9,11.9Z" transform="translate(-363.162 -89.752)" fill="#fff"/>
  <path id="Trazado_327" data-name="Trazado 327" d="M621.381,382.678q-.584.305-1.189.578-.55.249-1.118.467l-.42.158a22.5,22.5,0,0,1-3.418.942q-.863.17-1.749.266-.731.083-1.478.118c-.354.018-.709.025-1.066.025a22.579,22.579,0,0,1-4.212-.395c-.362-.065-.716-.143-1.071-.229a22.311,22.311,0,0,1-4.943-1.825c-.141-.07-.281-.146-.422-.219-.209-.111-.412-.226-.616-.347.1-.136.2-.269.312-.4a13.328,13.328,0,0,1,19.822-1.03,13.659,13.659,0,0,1,1.272,1.473C621.188,382.4,621.286,382.538,621.381,382.678Z" transform="translate(-487.761 -301.603)" fill="#4cbfbf"/>
  <circle id="Elipse_49" data-name="Elipse 49" cx="11.035" cy="11.035" r="11.035" transform="translate(112.65 47.965)" fill="#2f2e41"/>
  <circle id="Elipse_50" data-name="Elipse 50" cx="8.213" cy="8.213" r="8.213" transform="translate(111.533 59.577) rotate(-28.663)" fill="#a0616a"/>
  <path id="Trazado_328" data-name="Trazado 328" d="M629.13,293.8a11.171,11.171,0,0,1-6.384,1.973,6.844,6.844,0,0,0,2.713,1.116,22.524,22.524,0,0,1-9.2.052,5.952,5.952,0,0,1-1.926-.662,2.438,2.438,0,0,1-1.189-1.59c-.2-1.153.7-2.2,1.631-2.907a12.028,12.028,0,0,1,10.107-2.02,5.534,5.534,0,0,1,2.993,1.692,2.727,2.727,0,0,1,.252,3.238Z" transform="translate(-497.819 -236.125)" fill="#2f2e41"/>
  <path id="Trazado_329" data-name="Trazado 329" d="M577.112,230.173A22.615,22.615,0,0,0,565.34,272.1l.146.085q.181.109.362.211c.2.121.407.236.616.347.141.073.282.148.422.219a22.313,22.313,0,0,0,4.943,1.825c.354.085.709.163,1.071.229a22.58,22.58,0,0,0,4.212.395c.357,0,.711-.008,1.066-.025q.746-.034,1.478-.118.886-.1,1.749-.266a22.5,22.5,0,0,0,3.418-.942l.42-.158q.569-.219,1.118-.467.6-.271,1.189-.578a22.818,22.818,0,0,0,9.309-9.04c.01-.02.023-.04.033-.06a22.62,22.62,0,0,0-19.779-33.581Zm19.367,33.287c-.02.035-.038.07-.058.1a22.158,22.158,0,0,1-9.168,8.877q-.577.3-1.174.565c-.329.148-.666.289-1.005.42-.143.055-.289.111-.435.161a21.558,21.558,0,0,1-2.948.844,21.3,21.3,0,0,1-2.249.354c-.465.05-.937.085-1.412.1-.3.013-.611.02-.917.02a21.8,21.8,0,0,1-4.076-.38,21.512,21.512,0,0,1-2.42-.593,22.237,22.237,0,0,1-3.516-1.425c-.131-.068-.261-.136-.39-.206-.183-.1-.369-.2-.55-.307-.136-.075-.272-.156-.4-.236-.078-.045-.156-.093-.234-.141a22.133,22.133,0,1,1,30.957-8.16Z" transform="translate(-453.928 -191.779)" fill="#3f3d56"/>
  <path id="Trazado_330" data-name="Trazado 330" d="M608.9,263.69a2.21,2.21,0,0,0-2.844-1.64,3.578,3.578,0,0,0-2.219,2.813,4.036,4.036,0,0,0,.544,3.047,2.776,2.776,0,0,0,2.752,1.192,3.192,3.192,0,0,0,2.237-2.594,9.382,9.382,0,0,0-.231-3.6Z" transform="translate(-490.798 -215.573)" fill="#2f2e41"/>
  <path id="Trazado_331" data-name="Trazado 331" d="M675.877,270.787a2.21,2.21,0,0,0-2.844-1.64,3.578,3.578,0,0,0-2.219,2.813,4.036,4.036,0,0,0,.544,3.047,2.776,2.776,0,0,0,2.752,1.192,3.192,3.192,0,0,0,2.237-2.594,9.376,9.376,0,0,0-.231-3.6Z" transform="translate(-540.947 -220.886)" fill="#2f2e41"/>
  <path id="Trazado_332" data-name="Trazado 332" d="M238.44,219.788a1.125,1.125,0,0,1-.831-.368l-12.471-13.6a1.513,1.513,0,0,0-1.112-.489h-65.9a3.776,3.776,0,0,1-3.772-3.772V177.788a3.776,3.776,0,0,1,3.772-3.772H243.5a3.776,3.776,0,0,1,3.772,3.772v23.765a3.776,3.776,0,0,1-3.772,3.772h-2.421a1.511,1.511,0,0,0-1.509,1.509v11.82a1.124,1.124,0,0,1-.721,1.054A1.137,1.137,0,0,1,238.44,219.788Z" transform="translate(-154.353 -149.735)" fill="#fff"/>
  <path id="Trazado_333" data-name="Trazado 333" d="M238.44,219.788a1.125,1.125,0,0,1-.831-.368l-12.471-13.6a1.513,1.513,0,0,0-1.112-.489h-65.9a3.776,3.776,0,0,1-3.772-3.772V177.788a3.776,3.776,0,0,1,3.772-3.772H243.5a3.776,3.776,0,0,1,3.772,3.772v23.765a3.776,3.776,0,0,1-3.772,3.772h-2.421a1.511,1.511,0,0,0-1.509,1.509v11.82a1.124,1.124,0,0,1-.721,1.054A1.137,1.137,0,0,1,238.44,219.788Zm-80.315-45.269a3.273,3.273,0,0,0-3.269,3.269v23.765a3.273,3.273,0,0,0,3.27,3.269h65.9a2.017,2.017,0,0,1,1.483.652l12.471,13.6a.629.629,0,0,0,1.092-.425v-11.82a2.014,2.014,0,0,1,2.012-2.012H243.5a3.273,3.273,0,0,0,3.27-3.269V177.788a3.273,3.273,0,0,0-3.27-3.269Z" transform="translate(-154.353 -149.735)" fill="#3f3d56"/>
  <circle id="Elipse_51" data-name="Elipse 51" cx="3.301" cy="3.301" r="3.301" transform="translate(5.952 28.163)" fill="#4cbfbf"/>
  <path id="Trazado_334" data-name="Trazado 334" d="M257.118,264.78H179.44a1.76,1.76,0,0,1,0-3.521h77.678a1.76,1.76,0,1,1,0,3.521Z" transform="translate(-171.817 -215.053)" fill="#e6e6e6"/>
  <path id="Trazado_335" data-name="Trazado 335" d="M231.812,235.011H179.44a1.76,1.76,0,0,1,0-3.521h52.372a1.76,1.76,0,1,1,0,3.521Z" transform="translate(-171.817 -192.766)" fill="#e6e6e6"/>
  <path id="Trazado_336" data-name="Trazado 336" d="M684.327,540.71a1.124,1.124,0,0,1-.721-1.055v-11.82a1.511,1.511,0,0,0-1.509-1.509h-2.421a3.776,3.776,0,0,1-3.772-3.772V498.788a3.776,3.776,0,0,1,3.772-3.772h85.38a3.776,3.776,0,0,1,3.772,3.772v23.765a3.776,3.776,0,0,1-3.772,3.772h-65.9a1.514,1.514,0,0,0-1.112.489l-12.471,13.6a1.124,1.124,0,0,1-.831.368A1.138,1.138,0,0,1,684.327,540.71Z" transform="translate(-544.828 -390.062)" fill="#fff"/>
  <path id="Trazado_337" data-name="Trazado 337" d="M684.327,540.71a1.124,1.124,0,0,1-.721-1.055v-11.82a1.511,1.511,0,0,0-1.509-1.509h-2.421a3.776,3.776,0,0,1-3.772-3.772V498.788a3.776,3.776,0,0,1,3.772-3.772h85.38a3.776,3.776,0,0,1,3.772,3.772v23.765a3.776,3.776,0,0,1-3.772,3.772h-65.9a1.514,1.514,0,0,0-1.112.489l-12.471,13.6a1.124,1.124,0,0,1-.831.368A1.138,1.138,0,0,1,684.327,540.71Zm-4.651-45.191a3.273,3.273,0,0,0-3.269,3.269v23.765a3.273,3.273,0,0,0,3.269,3.27H682.1a2.014,2.014,0,0,1,2.012,2.012v11.82a.629.629,0,0,0,1.093.425l12.471-13.6a2.016,2.016,0,0,1,1.483-.652h65.9a3.273,3.273,0,0,0,3.269-3.27V498.788a3.273,3.273,0,0,0-3.269-3.27Z" transform="translate(-544.828 -390.062)" fill="#3f3d56"/>
  <path id="Trazado_338" data-name="Trazado 338" d="M533.416,685.973a22.385,22.385,0,0,1-23.536.374,13.6,13.6,0,0,1,2.363-3.179,13.429,13.429,0,0,1,21.088,2.656C533.358,685.872,533.388,685.923,533.416,685.973Z" transform="translate(-420.529 -527.966)" fill="#4cbfbf"/>
  <circle id="Elipse_52" data-name="Elipse 52" cx="11.109" cy="11.109" r="11.109" transform="translate(89.028 123.771)" fill="#2f2e41"/>
  <circle id="Elipse_53" data-name="Elipse 53" cx="8.268" cy="8.268" r="8.268" transform="translate(89.926 142.039) rotate(-61.337)" fill="#ffb8b8"/>
  <path id="Trazado_339" data-name="Trazado 339" d="M522.25,595.606a11.245,11.245,0,0,0,6.426,1.986,6.89,6.89,0,0,1-2.731,1.124,22.675,22.675,0,0,0,9.262.052,5.986,5.986,0,0,0,1.939-.666,2.453,2.453,0,0,0,1.2-1.6c.2-1.161-.7-2.216-1.641-2.926a12.108,12.108,0,0,0-10.174-2.033,5.572,5.572,0,0,0-3.013,1.7,2.745,2.745,0,0,0-.253,3.26Z" transform="translate(-429.79 -462.057)" fill="#2f2e41"/>
  <path id="Trazado_340" data-name="Trazado 340" d="M488.155,586.442a22.612,22.612,0,1,1,12.207-3.573A22.612,22.612,0,0,1,488.155,586.442Zm0-44.735a22.118,22.118,0,1,0,22.116,22.117A22.119,22.119,0,0,0,488.155,541.707Z" transform="translate(-387.339 -424.65)" fill="#3f3d56"/>
  <circle id="Elipse_54" data-name="Elipse 54" cx="3.301" cy="3.301" r="3.301" transform="translate(138.397 108.585)" fill="#4cbfbf"/>
  <path id="Trazado_341" data-name="Trazado 341" d="M784.117,584.78H706.44a1.76,1.76,0,0,1,0-3.521h77.678a1.76,1.76,0,1,1,0,3.521Z" transform="translate(-566.372 -454.631)" fill="#e6e6e6"/>
  <path id="Trazado_342" data-name="Trazado 342" d="M758.812,555.012H706.44a1.76,1.76,0,0,1,0-3.521h52.372a1.76,1.76,0,1,1,0,3.521Z" transform="translate(-566.372 -432.343)" fill="#e6e6e6"/>
  <ellipse id="Elipse_55" data-name="Elipse 55" cx="6.158" cy="0.683" rx="6.158" ry="0.683" transform="translate(133.234 151.531)" fill="#f2f2f2"/>
  <ellipse id="Elipse_56" data-name="Elipse 56" cx="6.158" cy="0.683" rx="6.158" ry="0.683" transform="translate(78.195 71.109)" fill="#f2f2f2"/>
</svg>
