<svg xmlns="http://www.w3.org/2000/svg" width="137.304" height="172.047" viewBox="0 0 137.304 172.047">
  <g id="SVG_dos_chicas_una_torta" data-name="SVG dos chicas una torta" transform="translate(0)">
    <path id="Trazado_76" data-name="Trazado 76" d="M154.054,489.77H22.16v4.255H42.73v40.419l4.387-.218-.132-40.2H127.1v40.419l4.147,1.092.107-41.511h22.7Z" transform="translate(-17.01 -375.901)" fill="#e6e6e6"/>
    <rect id="Rectángulo_4" data-name="Rectángulo 4" width="131.894" height="4.255" transform="translate(5.409 101.14)" fill="#e6e6e6"/>
    <rect id="Rectángulo_5" data-name="Rectángulo 5" width="131.894" height="4.255" transform="translate(5.409 90.504)" fill="#e6e6e6"/>
    <rect id="Rectángulo_6" data-name="Rectángulo 6" width="131.894" height="4.255" transform="translate(5.409 79.867)" fill="#e6e6e6"/>
    <path id="Trazado_77" data-name="Trazado 77" d="M154.054,489.77H22.16v4.255H42.73v40.419l4.387-.218-.132-40.2H127.1v40.419l4.147,1.092.107-41.511h22.7Z" transform="translate(-17.01 -375.901)" fill="#e6e6e6"/>
    <rect id="Rectángulo_7" data-name="Rectángulo 7" width="131.894" height="4.255" transform="translate(5.409 101.14)" fill="#e6e6e6"/>
    <rect id="Rectángulo_8" data-name="Rectángulo 8" width="131.894" height="4.255" transform="translate(5.409 90.504)" fill="#e6e6e6"/>
    <rect id="Rectángulo_9" data-name="Rectángulo 9" width="131.894" height="4.255" transform="translate(5.409 79.867)" fill="#e6e6e6"/>
    <path id="Trazado_78" data-name="Trazado 78" d="M87.3,245.356,70.068,249.3l-7.28-13.731,14.734-5.752Z" transform="translate(-48.192 -176.385)" fill="#2f2e41"/>
    <rect id="Rectángulo_10" data-name="Rectángulo 10" width="49.379" height="1.887" transform="translate(50.366 78.596)" fill="#3f3d56"/>
    <path id="Trazado_79" data-name="Trazado 79" d="M585.809,352.58h-.883a1.877,1.877,0,0,0,.255-.944v-3.145a1.887,1.887,0,0,0-1.887-1.887h-.739a1.879,1.879,0,0,0,.11-.629V342.83a1.887,1.887,0,0,0-1.887-1.887H559.39a1.887,1.887,0,0,0-1.887,1.887v3.145a1.881,1.881,0,0,0,.11.629h-.739a1.887,1.887,0,0,0-1.887,1.887v3.145a1.876,1.876,0,0,0,.254.944h-.884a1.887,1.887,0,0,0-1.887,1.887v3.145a1.887,1.887,0,0,0,1.887,1.887h31.451a1.887,1.887,0,0,0,1.887-1.887v-3.145a1.887,1.887,0,0,0-1.887-1.887Z" transform="translate(-494.87 -280.275)" fill="#7713bf"/>
    <path id="Trazado_80" data-name="Trazado 80" d="M600.724,338.3c0-.782-5.351-1.415-11.951-1.415s-11.952.634-11.952,1.415c0,.388,1.321.74,3.46,1v1.285a.394.394,0,0,0,.393.393h.157a.394.394,0,0,0,.393-.393V339.4c.493.048,1.019.09,1.573.128v1.055a.394.394,0,0,0,.393.393h.157a.394.394,0,0,0,.393-.393v-1c1.443.079,3.041.126,4.726.131a.391.391,0,0,0-.008.079v1.415a.394.394,0,0,0,.393.393h.157a.394.394,0,0,0,.393-.393v-1.415a.393.393,0,0,0-.008-.081c1.449-.009,2.829-.048,4.1-.113V340.9a.394.394,0,0,0,.393.393h.157a.394.394,0,0,0,.393-.393v-1.348c1.323-.084,2.5-.2,3.46-.332v1.052a.394.394,0,0,0,.393.393h.157a.394.394,0,0,0,.393-.393v-1.2C600.03,338.843,600.724,338.582,600.724,338.3Z" transform="translate(-513.559 -277.161)" fill="#e6e6e6"/>
    <rect id="Rectángulo_11" data-name="Rectángulo 11" width="25.161" height="0.629" transform="translate(62.633 66.015)" fill="#3f3d56"/>
    <rect id="Rectángulo_12" data-name="Rectángulo 12" width="29.564" height="0.629" transform="translate(60.431 71.991)" fill="#3f3d56"/>
    <rect id="Rectángulo_13" data-name="Rectángulo 13" width="34.282" height="0.629" transform="translate(58.229 77.652)" fill="#3f3d56"/>
    <rect id="Rectángulo_14" data-name="Rectángulo 14" width="0.944" height="5.347" transform="translate(74.584 55.636)" fill="#e6e6e6"/>
    <path id="Trazado_81" data-name="Trazado 81" d="M623.955,307.209c0,1.072-.6,1.092-1.335,1.092s-1.947-.212-1.334-1.092c.646-.928,1.754-2.7,1.334-2.79A6.611,6.611,0,0,1,623.955,307.209Z" transform="translate(-547.558 -252.242)" fill="#f9a825"/>
    <path id="Trazado_82" data-name="Trazado 82" d="M625.894,315.611c0,.424-.236.432-.528.432s-.771-.084-.528-.432c.256-.367.694-1.067.528-1.1A2.619,2.619,0,0,1,625.894,315.611Z" transform="translate(-550.361 -259.985)" fill="#ff6584" opacity="0.5"/>
    <rect id="Rectángulo_15" data-name="Rectángulo 15" width="0.944" height="5.347" transform="translate(79.931 55.95)" fill="#e6e6e6"/>
    <path id="Trazado_83" data-name="Trazado 83" d="M646.952,308.562c0,1.072-.6,1.092-1.335,1.092s-1.947-.212-1.334-1.092c.646-.928,1.754-2.7,1.334-2.79A6.611,6.611,0,0,1,646.952,308.562Z" transform="translate(-565.208 -253.281)" fill="#f9a825"/>
    <path id="Trazado_84" data-name="Trazado 84" d="M648.892,316.964c0,.424-.237.432-.528.432s-.771-.084-.528-.432c.256-.367.695-1.067.528-1.1A2.618,2.618,0,0,1,648.892,316.964Z" transform="translate(-568.012 -261.023)" fill="#ff6584" opacity="0.5"/>
    <rect id="Rectángulo_16" data-name="Rectángulo 16" width="0.944" height="5.347" transform="translate(69.552 55.95)" fill="#e6e6e6"/>
    <path id="Trazado_85" data-name="Trazado 85" d="M602.31,308.562c0,1.072-.6,1.092-1.334,1.092s-1.947-.212-1.335-1.092c.646-.928,1.755-2.7,1.335-2.79A6.61,6.61,0,0,1,602.31,308.562Z" transform="translate(-530.945 -253.281)" fill="#f9a825"/>
    <path id="Trazado_86" data-name="Trazado 86" d="M604.249,316.964c0,.424-.236.432-.528.432s-.771-.084-.528-.432c.256-.367.695-1.067.528-1.1A2.617,2.617,0,0,1,604.249,316.964Z" transform="translate(-533.749 -261.023)" fill="#ff6584" opacity="0.5"/>
    <path id="Trazado_87" data-name="Trazado 87" d="M795.525,321.91l-16.546-2.989c-1.157-4.591-2.75-9.443-.195-13.6.747-3.136,4.105-4.034,7.51-4.808A8.834,8.834,0,0,1,795.4,303.8a7.342,7.342,0,0,1,1.267,6.531C798.309,312.765,797.525,318.733,795.525,321.91Z" transform="translate(-667.516 -249.072)" fill="#2f2e41"/>
    <path id="Trazado_88" data-name="Trazado 88" d="M692.171,549.983l-7.2-4.924,9.473-33.032,9.993-16.511-18.51,11.259.965,21.989-9.325,4.729-2.494-27.275a8.912,8.912,0,0,1,4.447-8.547l15.256-8.734,1.206-12.545,16.834-2.584c6.508,8.392,9.965,16.094,6.977,22.336L704.616,515.7Z" transform="translate(-588.937 -382.249)" fill="#2f2e41"/>
    <path id="Trazado_89" data-name="Trazado 89" d="M696.811,779.734s-1.287-2.591-2.625-1.768a46.839,46.839,0,0,0-4.89,4.546s-6.537,1.869-2.025,3.706,6.125,1.459,6.211,1.1,1.064-1.269,1.064-1.269l1.716.789,2.694-.12s2.662-6.381,1.52-6.382S696.914,780.9,696.811,779.734Z" transform="translate(-597.112 -615.568)" fill="#2f2e41"/>
    <path id="Trazado_90" data-name="Trazado 90" d="M695.879,707.539s-2.873-.336-2.913,1.235a46.842,46.842,0,0,0,1.141,6.579s-2,6.5,2,3.719,4.565-4.337,4.31-4.605a5.432,5.432,0,0,1-.483-1.584l1.6-1.007,1.369-2.323s-3.894-5.713-4.518-4.756S696.913,708.089,695.879,707.539Z" transform="translate(-602.7 -559.451)" fill="#2f2e41"/>
    <circle id="Elipse_3" data-name="Elipse 3" cx="6.241" cy="6.241" r="6.241" transform="translate(111.141 53.472)" fill="#a0616a"/>
    <path id="Trazado_91" data-name="Trazado 91" d="M774.326,366.836l-15.308-.082c1.677-4.366,3.473-8.382,6.635-8.4,2.493-2.316,2.221-5.445,1.037-8.842l7.79.965c-.362,2.246.156,4.1,2.12,5.317C774.622,359.6,773.515,363.313,774.326,366.836Z" transform="translate(-653.397 -286.851)" fill="#a0616a"/>
    <path id="Trazado_92" data-name="Trazado 92" d="M773.565,404.214l-21.23,1.573-1.609-9.959c-4.434-4.234-3.9-8.5.194-12.786l1.495-5.525,3.269-1h0a3.437,3.437,0,0,0,3.595,5.233l1.2-.253a3.437,3.437,0,0,0,2.176-1.5l4.309-6.676,2.244.278a1.231,1.231,0,0,1,1.053.967l2.082,9.839C769.726,388.252,773.582,398.977,773.565,404.214Z" transform="translate(-644.648 -305.122)" fill="#575a89"/>
    <path id="Trazado_93" data-name="Trazado 93" d="M751.747,469.189l2.134,3.864a3.048,3.048,0,0,1-1.526,4.3h0a3.048,3.048,0,0,1-4.189-2.9l.1-4.13-4.424-15.846.467-10.939,4.634.747-.1,10.136Z" transform="translate(-641.752 -359.015)" fill="#a0616a"/>
    <path id="Trazado_94" data-name="Trazado 94" d="M823.2,454.423l-2,3.937a3.048,3.048,0,0,0,1.678,4.243h0a3.048,3.048,0,0,0,4.083-3.049l-.249-4.124,3.858-15.993-.855-10.915-4.6.911.457,10.126Z" transform="translate(-700.871 -347.493)" fill="#a0616a"/>
    <path id="Trazado_95" data-name="Trazado 95" d="M747.515,403.233l-7.083-1.687,2.605-8.727a5.362,5.362,0,0,1,4.08-3.723l1.709-.344Z" transform="translate(-639.131 -316.969)" fill="#575a89"/>
    <path id="Trazado_96" data-name="Trazado 96" d="M831.228,389.751l.142-5.487,1.332-8.945a1.231,1.231,0,0,1,1.2-1.05h0a1.231,1.231,0,0,1,.7.207l5.889,13.71C839.412,390.685,832.618,386.773,831.228,389.751Z" transform="translate(-708.818 -305.853)" fill="#575a89"/>
    <path id="Trazado_97" data-name="Trazado 97" d="M413.557,556.417l6.458-5.868-13.927-31.415-12.169-14.98L413.8,512.76l2.069,21.912,9.887,3.4-1.282-27.359a8.913,8.913,0,0,0-5.581-7.853l-16.312-6.552-2.921-12.26-17.03-.244c-5.292,9.208-7.656,17.312-3.838,23.083l17.719,17.281Z" transform="translate(-360.131 -389.922)" fill="#2f2e41"/>
    <path id="Trazado_98" data-name="Trazado 98" d="M535.014,771.543s.918-2.743,2.357-2.112a46.838,46.838,0,0,1,5.469,3.83s6.732.952,2.516,3.392-5.866,2.288-6,1.943-1.228-1.111-1.228-1.111l-1.591,1.018-2.685.252s-3.515-5.954-2.384-6.112S535.073,772.713,535.014,771.543Z" transform="translate(-478.578 -609.069)" fill="#2f2e41"/>
    <path id="Trazado_99" data-name="Trazado 99" d="M543.684,698.369s2.8-.728,3.056.823a46.847,46.847,0,0,1-.225,6.673s2.876,6.161-1.47,3.959-5.118-3.667-4.9-3.968a5.434,5.434,0,0,0,.261-1.636l-1.721-.778-1.676-2.112s3.071-6.194,3.821-5.333S542.735,699.057,543.684,698.369Z" transform="translate(-483.001 -552.718)" fill="#2f2e41"/>
    <circle id="Elipse_4" data-name="Elipse 4" cx="6.241" cy="6.241" r="6.241" transform="translate(18.31 55.205)" fill="#ffb9b9"/>
    <path id="Trazado_100" data-name="Trazado 100" d="M394.755,372.64l15.151-2.187c-2.262-4.094-4.594-7.825-7.727-7.407-2.788-1.951-2.949-5.088-2.244-8.616l-7.583,2.027c.667,2.175.409,4.084-1.368,5.558C393.466,365.51,395.074,369.039,394.755,372.64Z" transform="translate(-370.928 -290.626)" fill="#ffb9b9"/>
    <path id="Trazado_101" data-name="Trazado 101" d="M383.629,408.12c5.384,7.009,10.9,9.779,16.841-.241l.489-4.471c3.809-4.8,2.694-8.955-1.951-12.638l-2.24-5.267-3.376-.544h0a3.437,3.437,0,0,1-2.841,5.677l-1.221-.086a3.437,3.437,0,0,1-2.362-1.185l-5.186-6.02-2.185.584a1.231,1.231,0,0,0-.91,1.1l-.708,10.032A24,24,0,0,1,383.629,408.12Z" transform="translate(-360.947 -312.819)" fill="#7713bf"/>
    <path id="Trazado_102" data-name="Trazado 102" d="M324.995,421.223,313.071,418.8l7.919-7.369-3.014-5.451-12.8,13.615a1.82,1.82,0,0,0,1.167,3.011l17.336,1.92.711,3.137a2.666,2.666,0,0,0,4.037,1.656h0a2.666,2.666,0,0,0,.469-4.109Z" transform="translate(-304.723 -330.193)" fill="#ffb9b9"/>
    <path id="Trazado_103" data-name="Trazado 103" d="M465.759,467.641l-1.583,4.121a3.048,3.048,0,0,0,2.1,4.049h0a3.048,3.048,0,0,0,3.75-3.45l-.67-4.077,2.2-16.3-1.967-10.77-4.487,1.378,1.491,10.026Z" transform="translate(-426.948 -357.23)" fill="#ffb9b9"/>
    <path id="Trazado_104" data-name="Trazado 104" d="M453.508,405.33l6.784-2.646-3.781-8.285a5.362,5.362,0,0,0-4.554-3.126l-1.74-.105Z" transform="translate(-416.391 -318.822)" fill="#7713bf"/>
    <path id="Trazado_105" data-name="Trazado 105" d="M352.722,397.9l7.233-2.449-2.55-8.676a1.231,1.231,0,0,0-1.337-.874h0a1.231,1.231,0,0,0-.661.3l-7.389,6.555C349.431,395.081,350.936,395.139,352.722,397.9Z" transform="translate(-337.952 -314.77)" fill="#7713bf"/>
    <path id="Trazado_106" data-name="Trazado 106" d="M370.713,297.3s3.817.718,4.7,5.479a8.74,8.74,0,0,1,.075,2.431,6.862,6.862,0,0,0,2.029,5.131A49.9,49.9,0,0,1,381.14,315h0l-3.989,1.062-1.782-6.608a33.8,33.8,0,0,0-3.95-9.079l-.037-.059s-1.325,3.54-4.875,4.025L367.6,302.9a45.186,45.186,0,0,1-6.5,3.132,1.545,1.545,0,0,0-.5,2.687l.051.039c1.73,1.314,5.258,4.448,3.864,7.481s.232,3.585.232,3.585l-3-1.14-1.372-.588.139,1.014-6.7.14s-1.81-.011,1.405-4.842a4.562,4.562,0,0,0,.139-3.2,7.351,7.351,0,0,1-.742-3.369C354.823,302.971,356.875,293.061,370.713,297.3Z" transform="translate(-342.015 -245.991)" fill="#2f2e41"/>
    <path id="Trazado_107" data-name="Trazado 107" d="M785.938,307.952l5.766,3.669.524-1.048c3.481,2.515,2.734,8.948,1.048,16.25,0,0,6.091,2.235,6.814,0,1.287-3.978.262-13.367.262-13.367l-2.1-5.5-3.407-1.835-2.883-.262S789.345,304.544,785.938,307.952Z" transform="translate(-674.058 -253.155)" fill="#2f2e41"/>
    <ellipse id="Elipse_5" data-name="Elipse 5" cx="0.786" cy="1.048" rx="0.786" ry="1.048" transform="translate(120.005 60.825)" fill="#a0616a"/>
    <circle id="Elipse_6" data-name="Elipse 6" cx="0.806" cy="0.806" r="0.806" transform="translate(59.214 14.939)" fill="#e6e6e6"/>
    <circle id="Elipse_7" data-name="Elipse 7" cx="0.806" cy="0.806" r="0.806" transform="translate(71.107 40.338)" fill="#e6e6e6"/>
    <circle id="Elipse_8" data-name="Elipse 8" cx="0.806" cy="0.806" r="0.806" transform="translate(67.882 22.196)" fill="#e6e6e6"/>
    <circle id="Elipse_9" data-name="Elipse 9" cx="0.806" cy="0.806" r="0.806" transform="translate(54.78 30.662)" fill="#e6e6e6"/>
    <path id="Trazado_108" data-name="Trazado 108" d="M578.125,146.189a4.355,4.355,0,0,1-.4,6.818c-.41.29-.018.972.4.679a5.277,5.277,0,0,0,2.23-3.841,5.214,5.214,0,0,0-1.668-4.212C578.31,145.291,577.752,145.846,578.125,146.189Z" transform="translate(-514.118 -130.291)" fill="#e6e6e6"/>
    <path id="Trazado_109" data-name="Trazado 109" d="M609.337,190.408a4.355,4.355,0,0,1-.4,6.818c-.41.29-.018.972.4.679a5.277,5.277,0,0,0,2.23-3.841,5.214,5.214,0,0,0-1.668-4.212C609.521,189.509,608.964,190.064,609.337,190.408Z" transform="translate(-538.073 -164.229)" fill="#e6e6e6"/>
    <path id="Trazado_110" data-name="Trazado 110" d="M552.531,230.6a5.218,5.218,0,0,0-1.668,4.212,5.273,5.273,0,0,0,2.23,3.841c.414.292.807-.389.4-.679a4.355,4.355,0,0,1-.4-6.818C553.46,230.813,552.9,230.258,552.531,230.6Z" transform="translate(-493.626 -195.504)" fill="#e6e6e6"/>
    <path id="Trazado_111" data-name="Trazado 111" d="M574.115,208.609c-1.02-.111-2.288-.095-2.853.936a1.294,1.294,0,0,0,1.124,1.946.4.4,0,0,0,.1-.772,1.14,1.14,0,0,0-1.372,1.185c.012.814.81,1.3,1.475,1.562l.209-.758a1.707,1.707,0,1,0-.078,3.33c.5-.07.287-.827-.209-.758a.923.923,0,1,1,.078-1.813.394.394,0,0,0,.209-.758,1.47,1.47,0,0,1-.86-.663c-.091-.217.044-.658.339-.567l.1-.772a.457.457,0,0,1-.5-.373.694.694,0,0,1,.282-.666,2.533,2.533,0,0,1,1.948-.271C574.617,209.45,574.613,208.664,574.115,208.609Z" transform="translate(-508.844 -178.673)" fill="#e6e6e6"/>
    <path id="Trazado_112" data-name="Trazado 112" d="M523.829,185.2c-1.02-.111-2.287-.095-2.853.936a1.294,1.294,0,0,0,1.124,1.946.4.4,0,0,0,.1-.772,1.14,1.14,0,0,0-1.372,1.185c.012.814.81,1.3,1.475,1.562l.209-.758a1.707,1.707,0,1,0-.078,3.33c.5-.07.287-.827-.209-.758a.923.923,0,1,1,.078-1.813.394.394,0,0,0,.209-.758,1.47,1.47,0,0,1-.86-.663c-.091-.217.045-.658.339-.567l.1-.772a.457.457,0,0,1-.5-.373.7.7,0,0,1,.282-.666,2.533,2.533,0,0,1,1.948-.271C524.331,186.041,524.327,185.255,523.829,185.2Z" transform="translate(-470.25 -160.707)" fill="#e6e6e6"/>
    <path id="Trazado_113" data-name="Trazado 113" d="M631.819,239.421c1.02.111,2.288.095,2.853-.937a1.294,1.294,0,0,0-1.124-1.946.4.4,0,0,0-.1.772,1.14,1.14,0,0,0,1.372-1.185c-.012-.814-.81-1.3-1.475-1.562l-.209.758a1.707,1.707,0,1,0,.078-3.33c-.5.07-.287.827.209.758a.923.923,0,1,1-.078,1.813.394.394,0,0,0-.209.758,1.47,1.47,0,0,1,.86.663c.091.217-.044.658-.339.567l-.1.772a.457.457,0,0,1,.5.373.694.694,0,0,1-.282.666,2.532,2.532,0,0,1-1.948.271c-.5-.055-.5.732,0,.786Z" transform="translate(-555.483 -196.643)" fill="#e6e6e6"/>
    <circle id="Elipse_10" data-name="Elipse 10" cx="0.806" cy="0.806" r="0.806" transform="translate(82.016 0)" fill="#e6e6e6"/>
    <circle id="Elipse_11" data-name="Elipse 11" cx="0.806" cy="0.806" r="0.806" transform="translate(93.91 25.398)" fill="#e6e6e6"/>
    <circle id="Elipse_12" data-name="Elipse 12" cx="0.806" cy="0.806" r="0.806" transform="translate(90.684 7.257)" fill="#e6e6e6"/>
    <circle id="Elipse_13" data-name="Elipse 13" cx="0.806" cy="0.806" r="0.806" transform="translate(77.582 15.723)" fill="#e6e6e6"/>
    <path id="Trazado_114" data-name="Trazado 114" d="M676.2,81.933a4.355,4.355,0,0,1-.4,6.818c-.41.29-.018.972.4.679a5.278,5.278,0,0,0,2.23-3.841,5.214,5.214,0,0,0-1.668-4.212c-.372-.342-.929.212-.556.556Z" transform="translate(-589.392 -80.974)" fill="#e6e6e6"/>
    <path id="Trazado_115" data-name="Trazado 115" d="M707.414,126.15a4.355,4.355,0,0,1-.4,6.818c-.41.29-.018.972.4.679a5.277,5.277,0,0,0,2.23-3.841,5.215,5.215,0,0,0-1.668-4.212c-.372-.342-.929.212-.556.556Z" transform="translate(-613.348 -114.911)" fill="#e6e6e6"/>
    <path id="Trazado_116" data-name="Trazado 116" d="M650.607,166.344a5.218,5.218,0,0,0-1.668,4.212,5.273,5.273,0,0,0,2.23,3.841c.414.292.807-.389.4-.679a4.355,4.355,0,0,1-.4-6.818C651.536,166.556,650.978,166,650.607,166.344Z" transform="translate(-568.9 -146.187)" fill="#e6e6e6"/>
    <path id="Trazado_117" data-name="Trazado 117" d="M672.192,144.352c-1.02-.111-2.287-.095-2.853.937a1.294,1.294,0,0,0,1.124,1.946.4.4,0,0,0,.1-.772,1.14,1.14,0,0,0-1.372,1.185c.012.814.81,1.3,1.475,1.562l.209-.758a1.707,1.707,0,1,0-.078,3.33c.5-.07.287-.827-.209-.758a.923.923,0,1,1,.078-1.813.394.394,0,0,0,.209-.758,1.469,1.469,0,0,1-.86-.663c-.091-.217.045-.658.339-.567l.1-.772a.456.456,0,0,1-.5-.373.694.694,0,0,1,.282-.666,2.532,2.532,0,0,1,1.948-.271C672.694,145.193,672.69,144.407,672.192,144.352Z" transform="translate(-584.119 -129.356)" fill="#e6e6e6"/>
    <path id="Trazado_118" data-name="Trazado 118" d="M621.9,120.943c-1.02-.111-2.287-.095-2.853.936a1.294,1.294,0,0,0,1.124,1.946.4.4,0,0,0,.1-.772,1.14,1.14,0,0,0-1.372,1.185c.012.814.81,1.3,1.475,1.562l.209-.758a1.707,1.707,0,1,0-.078,3.33c.5-.07.287-.827-.209-.758a.923.923,0,1,1,.078-1.813.394.394,0,0,0,.209-.758,1.47,1.47,0,0,1-.86-.663c-.091-.217.044-.658.339-.567l.1-.772a.457.457,0,0,1-.5-.373.694.694,0,0,1,.282-.666,2.533,2.533,0,0,1,1.948-.271C622.407,121.784,622.4,121,621.9,120.943Z" transform="translate(-545.523 -111.389)" fill="#e6e6e6"/>
    <path id="Trazado_119" data-name="Trazado 119" d="M729.9,175.164c1.02.111,2.288.095,2.853-.937a1.294,1.294,0,0,0-1.124-1.946.4.4,0,0,0-.1.772,1.14,1.14,0,0,0,1.372-1.185c-.012-.814-.81-1.3-1.475-1.562l-.209.758a1.707,1.707,0,1,0,.078-3.33c-.5.07-.287.827.209.758a.923.923,0,1,1-.078,1.813.394.394,0,0,0-.209.758,1.47,1.47,0,0,1,.86.663c.091.217-.044.658-.339.567l-.1.772a.457.457,0,0,1,.5.373.7.7,0,0,1-.282.666,2.532,2.532,0,0,1-1.948.271c-.5-.055-.5.732,0,.786Z" transform="translate(-630.756 -147.325)" fill="#e6e6e6"/>
    <path id="Trazado_120" data-name="Trazado 120" d="M807.275,275.572l-1.085-2.4-.861-1.909-1.249-2.767-.863-1.909-1.171-2.6a.264.264,0,0,0-.454-.045l-1.209,1.684-.936,1.3-1.355,1.885-.933,1.3L795.8,272l-.933,1.3-.694.966a.244.244,0,0,0-.05.127.274.274,0,0,0,.021.134.261.261,0,0,0,.214.153l12.649,1.262a.247.247,0,0,0,.213-.079.194.194,0,0,0,.027-.029.275.275,0,0,0,.047-.127A.245.245,0,0,0,807.275,275.572Z" transform="translate(-680.343 -221.092)" fill="#7713bf"/>
    <path id="Trazado_121" data-name="Trazado 121" d="M516.934,194.412l-4.632-1.568.936-1.3,2.833.96Z" transform="translate(-393.196 -147.011)" fill="#e6e6e6"/>
    <path id="Trazado_122" data-name="Trazado 122" d="M511.49,209.6l-9.03-3.056.933-1.3,7.236,2.45Z" transform="translate(-385.643 -157.525)" fill="#e6e6e6"/>
    <path id="Trazado_123" data-name="Trazado 123" d="M809.684,302.818a.247.247,0,0,1-.213.079l-6.15-.614-5.99-2.028.933-1.3Z" transform="translate(-682.802 -248.049)" fill="#e6e6e6"/>
    <circle id="Elipse_14" data-name="Elipse 14" cx="2.097" cy="2.097" r="2.097" transform="translate(119.497 39.602)" fill="#7713bf"/>
    <path id="Trazado_124" data-name="Trazado 124" d="M389.639,265.955l-1.318-2.283-1.046-1.814-1.518-2.629-1.048-1.814-1.423-2.469a.264.264,0,0,0-.456,0l-1.035,1.8-.8,1.387-1.161,2.01-.8,1.389-1.161,2.01-.8,1.386-.595,1.03a.243.243,0,0,0-.037.131.274.274,0,0,0,.034.131.261.261,0,0,0,.228.131h12.712a.247.247,0,0,0,.2-.1.2.2,0,0,0,.024-.031.274.274,0,0,0,.034-.131A.244.244,0,0,0,389.639,265.955Z" transform="translate(-359.766 -214.172)" fill="#7713bf"/>
    <path id="Trazado_125" data-name="Trazado 125" d="M96.075,185.589l-4.765-1.1.8-1.387,2.915.674Z" transform="translate(-70.083 -140.532)" fill="#e6e6e6"/>
    <path id="Trazado_126" data-name="Trazado 126" d="M92.166,201.245,82.877,199.1l.8-1.389,7.443,1.719Z" transform="translate(-63.611 -151.745)" fill="#e6e6e6"/>
    <path id="Trazado_127" data-name="Trazado 127" d="M391.7,295.044a.247.247,0,0,1-.2.1h-6.18l-6.162-1.423.8-1.386Z" transform="translate(-361.852 -242.967)" fill="#e6e6e6"/>
    <circle id="Elipse_15" data-name="Elipse 15" cx="2.097" cy="2.097" r="2.097" transform="translate(21.195 37.499)" fill="#7713bf"/>
  </g>
</svg>
