<svg id="whatsapp" xmlns="http://www.w3.org/2000/svg" width="42" height="42" viewBox="0 0 42 42">
  <circle id="Elipse_57" data-name="Elipse 57" cx="21" cy="21" r="21" fill="#13ae3c"/>
  <path id="Icon_awesome-whatsapp" data-name="Icon awesome-whatsapp" d="M18.28,5.374A10.657,10.657,0,0,0,1.512,18.231L0,23.75l5.649-1.483a10.622,10.622,0,0,0,5.092,1.3h0A10.757,10.757,0,0,0,21.5,12.909a10.7,10.7,0,0,0-3.22-7.535ZM10.745,21.768a8.84,8.84,0,0,1-4.511-1.233l-.322-.192-3.35.878.893-3.268-.211-.336A8.872,8.872,0,1,1,19.7,12.909a8.954,8.954,0,0,1-8.955,8.859ZM15.6,15.136c-.264-.134-1.574-.777-1.819-.864s-.422-.134-.6.134-.686.864-.845,1.046-.312.2-.576.067a7.246,7.246,0,0,1-3.623-3.167c-.274-.47.274-.437.782-1.454a.493.493,0,0,0-.024-.466c-.067-.134-.6-1.445-.821-1.977S7.64,8.009,7.477,8s-.331-.01-.509-.01a.986.986,0,0,0-.71.331,2.991,2.991,0,0,0-.931,2.222A5.215,5.215,0,0,0,6.412,13.3a11.9,11.9,0,0,0,4.55,4.022,5.209,5.209,0,0,0,3.2.667,2.727,2.727,0,0,0,1.795-1.267,2.226,2.226,0,0,0,.154-1.267C16.043,15.332,15.866,15.265,15.6,15.136Z" transform="translate(10 7.75)" fill="#fff" stroke="#fff" stroke-width="1"/>
</svg>
